<?xml version="1.0" encoding="UTF-8"?>
<svg version="1.1" xmlns="http://www.w3.org/2000/svg" width="2000" height="2000">
<path d="M0 0 C660 0 1320 0 2000 0 C2000 660 2000 1320 2000 2000 C1340 2000 680 2000 0 2000 C0 1340 0 680 0 0 Z " fill="#FF751F" transform="translate(0,0)"/>
<path d="M0 0 C0.91458984 0.5878125 0.91458984 0.5878125 1.84765625 1.1875 C2.46769531 1.538125 3.08773437 1.88875 3.7265625 2.25 C10.88636641 6.70361453 15.12886092 14.39035422 17.84765625 22.1875 C17.92691158 24.27370488 17.7869877 26.26156931 17.60180664 28.34008789 C17.13343031 33.61871892 16.87667119 37.68478502 19.81640625 42.234375 C22.38382731 44.7244641 25.05449045 46.95627288 27.84765625 49.1875 C28.98661308 50.42724947 30.09409495 51.69703619 31.16015625 53 C34.37004525 56.75884863 37.8355546 60.21492679 41.34765625 63.6875 C45.40231159 67.69662299 49.28743781 71.74614508 52.9765625 76.09765625 C55.98916316 79.46246075 59.23337667 82.59295188 62.44555664 85.76586914 C65.77824687 89.07349763 68.89973741 92.48406607 71.94140625 96.0625 C74.47016064 98.88143932 77.15411626 101.52688837 79.84765625 104.1875 C83.72493588 108.01738013 87.41009231 111.90801302 90.94140625 116.0625 C93.47016064 118.88143932 96.15411626 121.52688837 98.84765625 124.1875 C102.72493588 128.01738013 106.41009231 131.90801302 109.94140625 136.0625 C112.47016064 138.88143932 115.15411626 141.52688837 117.84765625 144.1875 C121.72493588 148.01738013 125.41009231 151.90801302 128.94140625 156.0625 C131.47016064 158.88143932 134.15411626 161.52688837 136.84765625 164.1875 C140.72493588 168.01738013 144.41009231 171.90801302 147.94140625 176.0625 C150.47016064 178.88143932 153.15411626 181.52688837 155.84765625 184.1875 C159.72493588 188.01738013 163.41009231 191.90801302 166.94140625 196.0625 C169.47016086 198.88143956 172.15411871 201.52688576 174.84765625 204.1875 C178.1114824 207.41148087 181.31595766 210.62267847 184.28515625 214.125 C187.98480824 218.48236789 192.05831735 222.45182092 196.14233398 226.44506836 C196.67673096 226.97108643 197.21112793 227.49710449 197.76171875 228.0390625 C198.23561035 228.50135254 198.70950195 228.96364258 199.19775391 229.43994141 C200.84765625 231.1875 200.84765625 231.1875 203.06982422 234.34057617 C205.98151486 237.32468802 207.21297829 237.87981636 211.31726074 237.9427948 C211.99760376 237.9242897 212.67794678 237.90578461 213.37890625 237.88671875 C214.09244263 237.89331009 214.805979 237.89990143 215.5411377 237.9066925 C217.81093858 237.92411599 220.07798737 237.90224374 222.34765625 237.875 C224.616773 237.86367129 226.8850712 237.86109542 229.1541748 237.8754425 C230.56214214 237.88278519 231.9703003 237.87476967 233.37805176 237.8490448 C237.71231391 237.85192464 240.39782103 238.53851938 243.84765625 241.1875 C245.02365655 243.5395006 244.96850166 244.92484401 244.96118164 247.54541016 C244.96106834 248.89658432 244.96106834 248.89658432 244.96095276 250.27505493 C244.95579147 251.24905243 244.95063019 252.22304993 244.9453125 253.2265625 C244.94389755 254.22255463 244.9424826 255.21854675 244.94102478 256.24472046 C244.93541561 259.43401053 244.92286155 262.62323106 244.91015625 265.8125 C244.90514243 267.97135315 244.90057932 270.13020741 244.89648438 272.2890625 C244.8854432 277.5885655 244.86869613 282.88802778 244.84765625 288.1875 C245.47180263 288.18289104 246.095949 288.17828207 246.7390089 288.17353344 C261.92897086 288.06309044 277.11880957 287.98036133 292.30906963 287.92843914 C299.65500499 287.9026622 307.00067226 287.86752195 314.34643555 287.81030273 C320.74935661 287.76045151 327.15208351 287.72820526 333.55519325 287.71705753 C336.94540779 287.71054146 340.33506693 287.69523908 343.72510338 287.65884972 C347.51067641 287.62264034 351.29509267 287.61755159 355.08081055 287.61987305 C356.20362427 287.60189667 357.32643799 287.58392029 358.48327637 287.56539917 C363.11118045 287.59618015 366.01295474 287.69375934 370.04463196 290.0785675 C372.65182312 294.57411499 372.53250033 298.38252644 372.46289062 303.49804688 C372.47121414 305.05254295 372.47121414 305.05254295 372.47970581 306.63844299 C372.49150935 310.06151676 372.46721822 313.48326895 372.44140625 316.90625 C372.43969529 319.28609151 372.43976068 321.6659349 372.44152832 324.04577637 C372.43987466 329.03249144 372.42116729 334.01875721 372.38964844 339.00537109 C372.34997124 345.39797739 372.34560303 351.78999505 372.35311127 358.18270111 C372.35618056 363.09663283 372.34406179 368.01043218 372.32698059 372.92433167 C372.31994841 375.28145009 372.31682632 377.63858352 372.31767273 379.99571228 C372.31587539 383.28973515 372.29449795 386.58305225 372.26757812 389.87695312 C372.27050873 390.85165054 372.27343933 391.82634796 372.27645874 392.83058167 C372.21467092 397.7299388 372.12574055 401.25464983 368.84765625 405.1875 C366.51481854 406.35391886 365.17057195 406.31180791 362.57227898 406.31054783 C361.66929699 406.3125387 360.766315 406.31452957 359.83596992 406.31658077 C358.83821478 406.31366811 357.84045963 406.31075544 356.81246948 406.30775452 C355.23340317 406.30903854 355.23340317 406.30903854 353.62243652 406.31034851 C350.06061139 406.31201234 346.4988326 406.30646609 342.93701172 406.30102539 C340.35359257 406.30071927 337.77017334 406.30085218 335.18675423 406.30139065 C328.9513044 406.30192324 322.71586893 406.29729688 316.4804228 406.29088932 C309.27088368 406.28370191 302.06134961 406.28289526 294.85180664 406.28210449 C275.80875423 406.27684971 256.76570503 406.26288866 237.72265625 406.25 C195.19390625 406.229375 152.66515625 406.20875 108.84765625 406.1875 C108.84765625 494.2975 108.84765625 582.4075 108.84765625 673.1875 C131.61765625 673.1875 154.38765625 673.1875 177.84765625 673.1875 C181.84765625 675.1875 181.84765625 675.1875 183.07949829 676.79566956 C184.21161111 680.32075431 184.14243139 683.79221007 184.13818359 687.45678711 C184.14490082 688.28814682 184.15161804 689.11950653 184.15853882 689.97605896 C184.17752611 692.72238145 184.1814432 695.46845972 184.18359375 698.21484375 C184.19002054 700.12529094 184.19674882 702.03573714 184.20376587 703.94618225 C184.21574001 707.95006594 184.21944649 711.95386334 184.21826172 715.95776367 C184.21805838 721.08709352 184.24537538 726.21587024 184.27980614 731.34506893 C184.3020466 735.29047689 184.30610016 739.23575105 184.30504227 743.18121529 C184.30740196 745.07225007 184.31624616 746.96328834 184.331707 748.8542614 C184.3513119 751.49950779 184.34555121 754.14355245 184.33349609 756.78881836 C184.34473511 757.56872131 184.35597412 758.34862427 184.36755371 759.15216064 C184.32443412 762.87719137 183.97742145 764.98574405 181.94229126 768.1499176 C152.76073206 796.53664421 100.55846127 771.1875 59.84765625 771.1875 C59.84765625 926.9475 59.84765625 1082.7075 59.84765625 1243.1875 C121.22765625 1243.1875 182.60765625 1243.1875 245.84765625 1243.1875 C250.84765625 1247.1875 250.84765625 1247.1875 251.84765625 1249.1875 C251.84765625 1309.2475 251.84765625 1369.3075 251.84765625 1431.1875 C75.62765625 1431.1875 -100.59234375 1431.1875 -282.15234375 1431.1875 C-282.15234375 1248.1875 -282.15234375 1248.1875 -279.15234375 1244.1875 C-234.87932714 1229.4298278 -185.82020088 1243.1875 -139.15234375 1243.1875 C-139.15234375 1087.4275 -139.15234375 931.6675 -139.15234375 771.1875 C-162.25234375 771.1875 -185.35234375 771.1875 -209.15234375 771.1875 C-214.29001639 766.04982736 -214.30849383 763.93631317 -214.34521484 757.0534668 C-214.35748108 755.79223495 -214.35748108 755.79223495 -214.36999512 754.50552368 C-214.39485926 751.71592933 -214.41136738 748.92638588 -214.42578125 746.13671875 C-214.43376677 744.70908172 -214.43376677 744.70908172 -214.4419136 743.25260353 C-214.46864914 738.21536692 -214.48802307 733.17815514 -214.50244141 728.14086914 C-214.51909373 722.9351911 -214.56387522 717.73014561 -214.61481285 712.52470684 C-214.64845087 708.52441166 -214.66001503 704.52426727 -214.66566849 700.52384377 C-214.6723901 698.60486833 -214.68763576 696.68590313 -214.7115593 694.76706505 C-214.74314138 692.08075621 -214.7432584 689.39616216 -214.73583984 686.7097168 C-214.76044785 685.52112312 -214.76044785 685.52112312 -214.78555298 684.30851746 C-214.74396835 680.6291336 -214.25049582 678.3492914 -212.33409119 675.19033813 C-207.53715665 672.17077621 -203.22097725 672.52857438 -197.66088867 672.61987305 C-196.49948364 672.61914291 -195.33807861 672.61841278 -194.14147949 672.61766052 C-190.30478119 672.62114237 -186.46929859 672.66003529 -182.6328125 672.69921875 C-179.97192834 672.70854476 -177.31111142 672.71590778 -174.65022278 672.72065735 C-168.36384585 672.73618356 -162.07790489 672.77719479 -155.79171973 672.8274048 C-148.63339783 672.88333688 -141.47505484 672.91079436 -134.31656873 672.93588197 C-119.59490712 672.98811229 -104.87371342 673.07978832 -90.15234375 673.1875 C-90.15234375 659.6575 -90.15234375 646.1275 -90.15234375 632.1875 C-96.75234375 632.1875 -103.35234375 632.1875 -110.15234375 632.1875 C-129.87482072 628.40078442 -146.84802105 618.22309746 -159.15234375 602.1875 C-169.97544259 585.89424291 -173.29391337 570.21889173 -173.42578125 550.83203125 C-173.43376677 549.7239338 -173.43376677 549.7239338 -173.4419136 548.59345055 C-173.46854255 544.67241842 -173.48793766 540.75141678 -173.50244141 536.83032227 C-173.51568015 533.63308464 -173.54335793 530.43650053 -173.58447266 527.23950195 C-173.89166932 502.78214315 -172.22278386 481.41344397 -161.15234375 459.1875 C-160.61867188 458.07117188 -160.085 456.95484375 -159.53515625 455.8046875 C-149.86844751 436.6100266 -134.21131914 420.60440025 -116.15234375 409.1875 C-115.16234375 408.5275 -114.17234375 407.8675 -113.15234375 407.1875 C-304.22234375 406.8575 -495.29234375 406.5275 -692.15234375 406.1875 C-692.15234375 478.4575 -692.15234375 550.7275 -692.15234375 625.1875 C-690.17234375 625.5175 -688.19234375 625.8475 -686.15234375 626.1875 C-676.17824241 630.64270137 -669.2459926 637.96091996 -665.03515625 648 C-662.26171782 658.0138308 -663.23409948 669.02035831 -668.15234375 678.1875 C-673.18238667 686.39715554 -680.03361733 692.01512754 -689.15234375 695.1875 C-690.14234375 695.1875 -691.13234375 695.1875 -692.15234375 695.1875 C-692.15234375 711.0275 -692.15234375 726.8675 -692.15234375 743.1875 C-684.60528564 743.17178955 -677.05822754 743.1560791 -669.2824707 743.13989258 C-645.1423594 743.09175574 -621.00224941 743.05837824 -596.86210283 743.03430401 C-593.11322793 743.03055183 -589.36435319 743.02666887 -585.61547852 743.02270508 C-584.86913637 743.02191815 -584.12279423 743.02113122 -583.35383566 743.02032044 C-571.26478632 743.00726196 -559.17577971 742.98360569 -547.08675573 742.95604161 C-534.68484816 742.9279997 -522.28296299 742.91132632 -509.88102502 742.90523452 C-502.22665264 742.90111554 -494.57240107 742.88810015 -486.91806587 742.8637506 C-481.0514467 742.84603725 -475.18488974 742.84413131 -469.31824303 742.84817696 C-466.90956248 742.84734979 -464.50087748 742.84135812 -462.09222412 742.82988358 C-458.80950715 742.81500863 -455.52731159 742.81852843 -452.24458313 742.82673645 C-451.28641026 742.81799793 -450.3282374 742.8092594 -449.34102899 742.80025607 C-444.48165066 742.83320979 -441.06018049 742.94579151 -437.15234375 746.1875 C-436.00937379 748.47343992 -436.02420198 749.73951951 -436.01812267 752.27991295 C-436.01366483 753.14182696 -436.00920699 754.00374097 -436.00461406 754.89177358 C-436.0048906 756.32053868 -436.0048906 756.32053868 -436.00517273 757.77816772 C-436.00149604 758.78569174 -435.99781935 759.79321576 -435.99403125 760.83127081 C-435.98296122 764.22915305 -435.97914499 767.62700474 -435.9753418 771.02490234 C-435.96907976 773.45217487 -435.9624332 775.87944642 -435.95542908 778.30671692 C-435.93617842 785.60592461 -435.92559824 792.90512981 -435.91670129 800.20435518 C-435.91232002 803.63972307 -435.90695284 807.07508942 -435.90171242 810.51045609 C-435.88470052 821.92660642 -435.87020513 833.34275579 -435.86296368 844.75891685 C-435.86105372 847.72209042 -435.85913339 850.68526397 -435.85717773 853.6484375 C-435.85669399 854.3849391 -435.85621025 855.12144071 -435.85571185 855.88026054 C-435.847407 867.81792016 -435.82206229 879.75547971 -435.78959706 891.69309561 C-435.75655473 903.94251469 -435.73851754 916.19188287 -435.73531944 928.44134676 C-435.73315185 935.3217334 -435.72436702 942.20197407 -435.69885826 949.08231735 C-435.67492856 955.55176266 -435.67130778 962.02101622 -435.68161964 968.4904995 C-435.68211729 970.86896449 -435.67572995 973.24744206 -435.6620636 975.62586784 C-435.64448743 978.86518714 -435.65138066 982.10354669 -435.66459656 985.34286499 C-435.65362731 986.29091361 -435.64265807 987.23896224 -435.63135642 988.21573961 C-435.69427438 994.57382145 -435.69427438 994.57382145 -438.05782795 997.74028969 C-442.15311186 1000.56993514 -445.60710673 1000.32824131 -450.44582939 1000.31613445 C-451.31813952 1000.31788749 -452.19044964 1000.31964053 -453.0891934 1000.32144669 C-456.04457497 1000.32613954 -458.99990804 1000.3236328 -461.95529175 1000.32121277 C-464.08256449 1000.32307909 -466.20983688 1000.32537907 -468.33710873 1000.32807809 C-474.20808355 1000.33422463 -480.0790442 1000.33405916 -485.95002151 1000.33288372 C-492.27186922 1000.33268043 -498.59371229 1000.33819158 -504.91555786 1000.34294128 C-517.31064997 1000.351264 -529.70573636 1000.35400978 -542.1008309 1000.35455366 C-552.17130784 1000.35501266 -562.24178323 1000.35706814 -572.31225967 1000.36025429 C-575.20778787 1000.36115179 -578.10331607 1000.3620416 -580.99884427 1000.36292917 C-581.71861836 1000.36315021 -582.43839246 1000.36337126 -583.17997789 1000.36359901 C-603.43448338 1000.36975589 -623.68898833 1000.3736993 -643.9434948 1000.37325573 C-644.70761778 1000.37324015 -645.47174077 1000.37322457 -646.259019 1000.37320852 C-650.13218493 1000.37312541 -654.00535085 1000.37302637 -657.87851678 1000.37292381 C-658.64778418 1000.37290387 -659.41705158 1000.37288392 -660.20963011 1000.37286337 C-661.76527722 1000.37282294 -663.32092433 1000.37278114 -664.87657144 1000.37273798 C-689.08487524 1000.3721251 -713.29316505 1000.37963304 -737.50146484 1000.39331055 C-764.67975328 1000.40865963 -791.85803252 1000.41727748 -819.03632557 1000.41634732 C-821.93248248 1000.41627269 -824.82863939 1000.41622399 -827.7247963 1000.41619301 C-828.43793925 1000.41618135 -829.15108221 1000.4161697 -829.88583555 1000.41615769 C-841.37953807 1000.41612687 -852.87322846 1000.42252223 -864.36692737 1000.43112527 C-875.91161771 1000.43958796 -887.456284 1000.4404305 -899.00097691 1000.43401595 C-905.25957593 1000.43073801 -911.51813087 1000.4307397 -917.77672577 1000.4393692 C-923.49962365 1000.4471792 -929.22244209 1000.44585963 -934.94533791 1000.43708507 C-937.02205192 1000.43553786 -939.0987717 1000.43741163 -941.17547892 1000.44294515 C-943.98614246 1000.44994168 -946.79652236 1000.44476195 -949.60717583 1000.43638897 C-950.83231957 1000.44384124 -950.83231957 1000.44384124 -952.0822137 1000.45144406 C-959.29363808 1000.40564911 -959.29363808 1000.40564911 -962.15234375 998.1875 C-964.00716809 995.39868651 -964.4037133 993.17823319 -964.41240597 989.86740208 C-964.41947156 989.00560607 -964.42653715 988.14381005 -964.43381685 987.25589901 C-964.43140177 986.3137877 -964.42898668 985.37167638 -964.42649841 984.40101624 C-964.43173509 983.39657248 -964.43697177 982.39212873 -964.44236714 981.35724729 C-964.457404 977.98169587 -964.4580731 974.60629554 -964.45874023 971.23071289 C-964.46635913 968.81461836 -964.47478616 966.39852625 -964.48396301 963.98243713 C-964.50593904 957.41229725 -964.51473247 950.84219324 -964.51978946 944.27202535 C-964.52304663 940.16998199 -964.52956913 936.06794801 -964.53679085 931.96590996 C-964.55635397 920.60887104 -964.57276047 909.25184083 -964.57566738 897.89478397 C-964.57585495 897.1681499 -964.57604252 896.44151583 -964.57623577 895.69286254 C-964.57660202 894.21980727 -964.57696572 892.746752 -964.57732689 891.27369673 C-964.5775097 890.54247105 -964.57769251 889.81124536 -964.57788086 889.05786133 C-964.57806141 888.32574365 -964.57824196 887.59362598 -964.57842798 886.83932292 C-964.58197137 874.9703311 -964.60900524 863.10152052 -964.64637875 851.23259158 C-964.68444095 839.04750735 -964.70382469 826.86251312 -964.70412689 814.6773681 C-964.70471185 807.83551684 -964.71322877 800.9938819 -964.74212456 794.15208626 C-964.76916729 787.71950538 -964.77056112 781.2872405 -964.75446892 774.85461998 C-964.75264727 772.49108574 -964.75940915 770.12752732 -964.77528763 767.76404572 C-964.79561485 764.54250555 -964.78527404 761.32248648 -964.76707458 758.10096741 C-964.78027455 757.16108681 -964.79347452 756.22120622 -964.80707449 755.25284439 C-964.75257156 751.04209712 -964.49788131 748.74644635 -962.24706078 745.10548782 C-957.81094374 742.35615133 -954.14926143 742.50861047 -949.0221405 742.58622742 C-947.99289674 742.58195529 -946.96365297 742.57768317 -945.90322 742.57328159 C-942.44960629 742.56503665 -938.99720325 742.59256301 -935.54370117 742.61987305 C-933.070089 742.62128318 -930.59647473 742.62049222 -928.12286377 742.61766052 C-922.79492269 742.61652142 -917.46735946 742.63071512 -912.13951683 742.65884972 C-904.43643781 742.69950066 -896.73350679 742.71250852 -889.03033213 742.71878967 C-876.53226311 742.72973039 -864.03435734 742.76299845 -851.53637695 742.81030273 C-839.3964113 742.85620414 -827.25649 742.89159317 -815.11645508 742.9128418 C-814.36803281 742.91415541 -813.61961053 742.91546903 -812.8485088 742.91682246 C-809.09386036 742.92334769 -805.33921162 742.92966622 -801.58456266 742.93588197 C-770.44034502 742.98770809 -739.29643099 743.07987936 -708.15234375 743.1875 C-708.15234375 727.3475 -708.15234375 711.5075 -708.15234375 695.1875 C-710.13234375 694.8575 -712.11234375 694.5275 -714.15234375 694.1875 C-723.91316102 689.82756771 -730.3683374 683.07405448 -734.42578125 673.265625 C-737.37838772 664.82053553 -737.5170116 654.6340715 -734.19140625 646.2734375 C-729.39011655 636.63475817 -722.54355256 628.82977938 -712.15234375 625.1875 C-710.83234375 625.1875 -709.51234375 625.1875 -708.15234375 625.1875 C-708.16063989 624.0113595 -708.16893602 622.835219 -708.17748356 621.62343788 C-708.37255878 593.68119741 -708.52088511 565.7390101 -708.61193172 537.79623113 C-708.62318758 534.35422451 -708.63483653 530.91221932 -708.64672852 527.47021484 C-708.65026971 526.4423874 -708.65026971 526.4423874 -708.65388244 525.39379577 C-708.69300543 514.3102347 -708.76394436 503.22709533 -708.84671891 492.14378412 C-708.93099266 480.76451761 -708.9802223 469.38556298 -708.9991402 458.00596464 C-709.01086633 451.61684349 -709.03839353 445.22867758 -709.10391426 438.83986282 C-709.1651171 432.82318994 -709.18382496 426.80786342 -709.17031288 420.79090881 C-709.17278383 418.58583121 -709.1906204 416.38070745 -709.22519302 414.17589951 C-709.50442609 395.44563161 -709.50442609 395.44563161 -703.81065369 389.03671265 C-702.29102627 387.71455607 -700.74009146 386.4270252 -699.15234375 385.1875 C-697.94546369 383.92958353 -696.75600661 382.65430489 -695.59765625 381.3515625 C-694.49165504 380.17115342 -693.38487984 378.99146908 -692.27734375 377.8125 C-687.10497174 372.28851274 -681.96936584 366.73368545 -676.86328125 361.1484375 C-673.97027901 357.98494272 -671.06192603 354.83574074 -668.15234375 351.6875 C-664.30992605 347.52909806 -660.47569609 343.36343814 -656.65234375 339.1875 C-645.35652709 326.84999419 -645.35652709 326.84999419 -640.94970703 322.17333984 C-639.53856702 320.61422373 -638.18344437 319.00438608 -636.85107422 317.37744141 C-630.63724606 309.93469912 -624.24039073 305.43335894 -615.40002441 301.50604248 C-613.17300829 300.51612235 -610.96430234 299.49221608 -608.75683594 298.45947266 C-606.28927292 297.30537839 -603.82089968 296.15348572 -601.34790039 295.01107788 C-591.07626169 290.26095671 -580.93953495 285.23753534 -570.79046631 280.23236084 C-565.0865117 277.42112533 -559.37694451 274.62133303 -553.66796875 271.8203125 C-552.53338226 271.263367 -551.39879578 270.70642151 -550.22982788 270.13259888 C-534.10029652 262.21507918 -517.9596018 254.32036746 -501.81835938 246.42675781 C-495.86686946 243.51605646 -489.91650805 240.60306119 -483.96691895 237.68847656 C-479.91529876 235.70385224 -475.86320215 233.72020191 -471.81103516 231.73669434 C-469.91532018 230.80848775 -468.01980256 229.87987797 -466.12451172 228.95080566 C-456.89512764 224.42683551 -447.65402282 219.93498153 -438.35546875 215.5546875 C-430.53847356 211.87067284 -422.79425512 208.05839867 -415.08135986 204.16168213 C-411.85656551 202.53311252 -408.62729142 200.91347062 -405.3984375 199.29296875 C-404.76273834 198.97379486 -404.12703918 198.65462097 -403.47207642 198.32577515 C-391.16404797 192.14759328 -378.83806558 186.02718703 -366.39233398 180.12963867 C-358.5803508 176.41889445 -350.85166246 172.55232579 -343.12646484 168.66479492 C-336.38060458 165.27874693 -329.59652742 161.98558508 -322.77734375 158.75 C-314.51678907 154.82992935 -306.3208347 150.79589117 -298.15234375 146.6875 C-289.04962508 142.10923343 -279.9006606 137.64902896 -270.6953125 133.28125 C-263.8037424 130.00181319 -256.96973974 126.6182109 -250.15234375 123.1875 C-242.40080735 119.28670262 -234.61728856 115.46991864 -226.77734375 111.75 C-218.51678907 107.82992935 -210.3208347 103.79589117 -202.15234375 99.6875 C-193.04962508 95.10923343 -183.9006606 90.64902896 -174.6953125 86.28125 C-167.8037424 83.00181319 -160.96973974 79.6182109 -154.15234375 76.1875 C-146.40080735 72.28670262 -138.61728856 68.46991864 -130.77734375 64.75 C-121.40575053 60.30268272 -112.12435756 55.691207 -102.85742188 51.03027344 C-94.77205491 46.97312597 -86.6345413 43.039086 -78.46020508 39.16479492 C-71.00264965 35.62165396 -63.61678856 31.94651768 -56.26806641 28.18286133 C-55.49124512 27.7886499 -54.71442383 27.39443848 -53.9140625 26.98828125 C-53.23303467 26.63934814 -52.55200684 26.29041504 -51.8503418 25.9309082 C-50.15234375 25.1875 -50.15234375 25.1875 -48.15234375 25.1875 C-48.11109375 24.23875 -48.06984375 23.29 -48.02734375 22.3125 C-46.84713847 14.32590537 -41.4323237 7.55429592 -35.25390625 2.66015625 C-25.40187129 -4.24359315 -10.87521914 -6.03480369 0 0 Z " fill="#FFFDFC" transform="translate(1296.15234375,285.8125)"/>
<path d="M0 0 C164.01 0 328.02 0 497 0 C497 73.92 497 147.84 497 224 C332.99 224 168.98 224 0 224 C0 150.08 0 76.16 0 0 Z " fill="#FF751F" transform="translate(348,1045)"/>
<path d="M0 0 C161.7 0 323.4 0 490 0 C490 35.31 490 70.62 490 107 C328.3 107 166.6 107 0 107 C0 71.69 0 36.38 0 0 Z " fill="#FF751F" transform="translate(1030,1594)"/>
<path d="M0 0 C2.08548553 0.00590025 4.17097705 0.00996915 6.25646973 0.01220703 C13.88591544 0.03295713 21.51523334 0.08880067 29.14453125 0.140625 C54.79171875 0.264375 54.79171875 0.264375 80.95703125 0.390625 C80.95703125 70.020625 80.95703125 139.650625 80.95703125 211.390625 C44.69828125 211.4834375 44.69828125 211.4834375 7.70703125 211.578125 C-3.71905762 211.61909302 -3.71905762 211.61909302 -15.37597656 211.66088867 C-24.71630859 211.67443848 -24.71630859 211.67443848 -29.09637451 211.67695618 C-32.139248 211.67973808 -35.18196262 211.69092808 -38.22479248 211.70735168 C-42.11861535 211.72808674 -46.01221063 211.73406962 -49.90608358 211.72984183 C-51.32730815 211.73072454 -52.74854151 211.73657956 -54.16971827 211.74827039 C-73.9944626 211.90363957 -89.86218627 206.15311366 -104.35546875 192.515625 C-114.53165061 181.82025019 -120.07265391 167.33466418 -120.23583984 152.67700195 C-120.25190277 151.3573494 -120.2679657 150.03769684 -120.28451538 148.67805481 C-120.29601557 147.24501201 -120.30662194 145.8119618 -120.31640625 144.37890625 C-120.32172993 143.64687674 -120.3270536 142.91484722 -120.3325386 142.16063499 C-120.35921191 138.27433703 -120.37859211 134.3880703 -120.39306641 130.50170898 C-120.40630546 127.32562822 -120.43397688 124.15020529 -120.47509766 120.97436523 C-120.78177273 96.72412977 -119.12443662 76.89364909 -107.04296875 55.390625 C-106.285 53.99070312 -106.285 53.99070312 -105.51171875 52.5625 C-92.0213231 28.72946768 -68.28838267 11.31800294 -42.12026024 3.84127045 C-28.06949196 0.12913915 -14.45828394 -0.13860404 0 0 Z " fill="#FF7B29" transform="translate(1259.04296875,691.609375)"/>
<path d="M0 0 C7.3330382 6.05772721 14.19299958 12.63753609 20.375 19.875 C23.41430745 23.43286227 26.6736402 26.71441691 30 30 C33.87728785 33.82987375 37.56243613 37.72051309 41.09375 41.875 C43.62250439 44.69393932 46.30646001 47.33938837 49 50 C52.87727963 53.82988013 56.56243606 57.72051302 60.09375 61.875 C62.62250439 64.69393932 65.30646001 67.33938837 68 70 C71.87727963 73.82988013 75.56243606 77.72051302 79.09375 81.875 C81.62250439 84.69393932 84.30646001 87.33938837 87 90 C90.87727963 93.82988013 94.56243606 97.72051302 98.09375 101.875 C100.62250439 104.69393932 103.30646001 107.33938837 106 110 C109.87727963 113.82988013 113.56243606 117.72051302 117.09375 121.875 C119.62250439 124.69393932 122.30646001 127.33938837 125 130 C128.87727963 133.82988013 132.56243606 137.72051302 136.09375 141.875 C138.62250439 144.69393932 141.30646001 147.33938837 144 150 C147.87727963 153.82988013 151.56243606 157.72051302 155.09375 161.875 C157.62251737 164.69395378 160.30662574 167.33920023 163 170 C172.14028958 179.03945667 172.14028958 179.03945667 176 184 C176 184.33 176 184.66 176 185 C174.74703125 185.02578125 173.4940625 185.0515625 172.203125 185.078125 C170.55204877 185.13441169 168.90100845 185.1917589 167.25 185.25 C166.425 185.26417969 165.6 185.27835938 164.75 185.29296875 C163.95078125 185.32519531 163.1515625 185.35742188 162.328125 185.390625 C161.5949707 185.41157227 160.86181641 185.43251953 160.10644531 185.45410156 C156.90362617 186.28413211 155.95817715 187.28594259 154 190 C153.37626632 193.5699789 153.43648895 197.11889525 153.45410156 200.73535156 C153.43859505 202.37482758 153.43859505 202.37482758 153.42277527 204.04742432 C153.39326545 207.66197348 153.39184631 211.27596466 153.390625 214.890625 C153.37564896 217.39598667 153.35892304 219.90133844 153.34051514 222.40667725 C153.30123749 228.32809429 153.27961588 234.24940926 153.26654124 240.17092681 C153.24632665 248.75812463 153.19041153 257.34510264 153.13883972 265.93215942 C153.06994392 277.95481155 153.03855985 289.97703982 153 302 C119.67 302 86.34 302 52 302 C51.98582031 292.68007813 51.97164062 283.36015625 51.95703125 273.7578125 C51.9369548 267.82419156 51.91562092 261.89061839 51.88867188 255.95703125 C51.84620577 246.55612865 51.80861269 237.1554026 51.80444336 227.75439453 C51.80138182 220.90476798 51.7806011 214.05545042 51.73947543 207.20594299 C51.71833976 203.5868379 51.70544272 199.96816986 51.71384621 196.34900284 C51.7439891 180.7816093 51.185648 166.76962727 46 152 C45.53629747 150.28862034 45.09287962 148.57136833 44.68554688 146.84570312 C44.52187622 146.16439331 44.35820557 145.4830835 44.1895752 144.78112793 C44.03420288 144.12116821 43.87883057 143.4612085 43.71875 142.78125 C43.5379187 142.02815552 43.3570874 141.27506104 43.17077637 140.49914551 C42.42503001 137.39296942 41.68665119 134.28505722 40.94775391 131.17724609 C38.98042001 122.92069474 36.95360779 114.70014872 34.6328125 106.53515625 C30.86324519 93.23738752 27.74627613 79.76830461 24.50585938 66.33422852 C23.66075942 62.83531439 22.81103732 59.3375459 21.9609375 55.83984375 C21.7077475 54.783452 21.4545575 53.72706024 21.19369507 52.63865662 C20.07238828 48.0306686 18.9096819 43.43332341 17.56494141 38.88500977 C17.25697128 37.82709984 17.25697128 37.82709984 16.94277954 36.74781799 C15.68778733 34.42118926 14.4445015 33.91089759 12 33 C9.0011881 32.63443135 9.0011881 32.63443135 5.703125 32.5859375 C4.49785156 32.54726563 3.29257813 32.50859375 2.05078125 32.46875 C0.79652344 32.4378125 -0.45773437 32.406875 -1.75 32.375 C-3.01972656 32.33632813 -4.28945312 32.29765625 -5.59765625 32.2578125 C-8.73153181 32.1635606 -11.86574598 32.08069218 -15 32 C-15 24.41 -15 16.82 -15 9 C-11.97265625 7.53515625 -8.9453125 6.0703125 -5.91796875 4.60546875 C-3.43420298 3.23889883 -1.8200622 2.12659899 0 0 Z " fill="#FF751F" transform="translate(1304,339)"/>
<path d="M0 0 C-3.31625437 7.92621236 -11.66823532 13.81258684 -18.0703125 19.2890625 C-20.84245001 21.7469496 -23.40550689 24.39623604 -26.00390625 27.03515625 C-27.92107177 28.92230744 -29.89575322 30.68685375 -31.9375 32.4375 C-34.92801716 35.00665271 -37.73116684 37.69317256 -40.5 40.5 C-43.88241399 43.9288279 -47.38070442 47.12048518 -51.03515625 50.25390625 C-53.10820324 52.09615675 -55.05435802 54.02401662 -57 56 C-59.55990134 58.59982183 -62.1677954 61.06268398 -64.9375 63.4375 C-67.92801716 66.00665271 -70.73116684 68.69317256 -73.5 71.5 C-76.88241399 74.9288279 -80.38070442 78.12048518 -84.03515625 81.25390625 C-86.81561832 83.72481389 -89.39118218 86.3816694 -92 89.03125 C-94.56305228 91.55425459 -97.27345824 93.87562817 -100 96.21875 C-102.08337078 98.0742521 -104.04281207 100.01223101 -106 102 C-108.55990134 104.59982183 -111.1677954 107.06268398 -113.9375 109.4375 C-116.92801716 112.00665271 -119.73116684 114.69317256 -122.5 117.5 C-125.88241399 120.9288279 -129.38070442 124.12048518 -133.03515625 127.25390625 C-135.81149876 129.72115297 -138.38345088 132.37376052 -140.98828125 135.01953125 C-143.61722708 137.60763908 -146.38176698 140.00692939 -149.19921875 142.38671875 C-151.2268012 144.124733 -151.2268012 144.124733 -153.5 147 C-156 149 -156 149 -159.3125 148.8125 C-160.33150391 148.61720703 -160.33150391 148.61720703 -161.37109375 148.41796875 C-170.23571811 147.00858568 -179.93006101 146.60489785 -187.82421875 151.328125 C-192.21451707 154.70163969 -197.17922726 158.79958882 -198.59863281 164.33422852 C-199.62312809 167.64041409 -200.60188102 169.46694982 -203 172 C-208.55760648 174.71911933 -214.89885682 175.69104197 -220.91845703 176.9118042 C-225.34210083 177.80948325 -229.74376257 178.79897873 -234.14886475 179.78302002 C-236.54777947 180.31820858 -238.94776032 180.848637 -241.34869385 181.37469482 C-251.04949332 183.51266014 -260.68099029 185.8730493 -270.3046875 188.33203125 C-271.03800419 188.51935129 -271.77132088 188.70667133 -272.52685928 188.89966774 C-276.96088747 190.03371702 -281.39344681 191.17342533 -285.82552338 192.31507492 C-292.06937232 193.92285841 -298.3150279 195.52354206 -304.5625 197.1171875 C-305.22905987 197.28733053 -305.89561974 197.45747356 -306.58237839 197.63277245 C-315.20714559 199.83051323 -323.84998649 201.91957168 -332.53125 203.8828125 C-343.36721229 206.33650107 -354.1392735 209.01263227 -364.90625 211.75 C-365.7396994 211.96184055 -366.5731488 212.17368111 -367.43185425 212.39194107 C-373.45556721 213.92405583 -379.47792117 215.46147671 -385.5 217 C-392.36368541 218.7535373 -399.22793455 220.50481914 -406.09375 222.25 C-406.92479185 222.46131498 -407.7558337 222.67262997 -408.61205864 222.89034843 C-419.6675147 225.69746147 -430.74245086 228.37364761 -441.8686676 230.88832092 C-449.47727394 232.61821534 -457.03707695 234.50604205 -464.58984375 236.46484375 C-465.69570831 236.75138824 -466.80157288 237.03793274 -467.94094849 237.3331604 C-472.43293541 238.49997179 -476.92375479 239.67104733 -481.41235352 240.85083008 C-484.76134029 241.72943467 -488.11282816 242.59787847 -491.46484375 243.46484375 C-492.48335922 243.73554184 -493.50187469 244.00623993 -494.55125427 244.28514099 C-495.48816605 244.52612015 -496.42507782 244.7670993 -497.39038086 245.01538086 C-498.21130722 245.23044785 -499.03223358 245.44551483 -499.8780365 245.667099 C-502 246 -502 246 -505 245 C-503.65035156 244.32517578 -503.65035156 244.32517578 -502.2734375 243.63671875 C-501.66556396 243.3327417 -501.05769043 243.02876465 -500.43139648 242.71557617 C-499.02739176 242.01365715 -497.62325164 241.31200889 -496.21899414 240.6105957 C-492.09207066 238.54867699 -487.9679246 236.48143856 -483.84765625 234.40625 C-473.48754276 229.19591712 -463.08181502 224.10182604 -452.60717773 219.12573242 C-446.03164162 215.99386309 -439.50495019 212.77573198 -433 209.5 C-425.62400692 205.78570758 -418.2107023 202.1660192 -410.75 198.625 C-402.44807668 194.68356847 -394.210044 190.62931566 -386 186.5 C-377.91460851 182.43346409 -369.80283154 178.43982153 -361.625 174.5625 C-352.42168382 170.19830544 -343.30489989 165.67331825 -334.20532227 161.09753418 C-325.28627083 156.61488635 -316.31926594 152.25113515 -307.30078125 147.97265625 C-299.90230288 144.4544987 -292.57605697 140.80433369 -285.25927734 137.11987305 C-278.79375924 133.87330616 -272.28592588 130.72709925 -265.75 127.625 C-257.44807671 123.68356848 -249.2100426 119.62931855 -241 115.5 C-231.94400507 110.94526502 -222.84216353 106.50834941 -213.68359375 102.1640625 C-206.40844206 98.70161066 -199.19782088 95.12015549 -192 91.5 C-182.94400203 86.94527139 -173.84216357 82.50834943 -164.68359375 78.1640625 C-156.29514662 74.17176167 -147.99492992 70.01222757 -139.69580078 65.83813477 C-131.69149065 61.82168841 -123.63362866 57.93262863 -115.54296875 54.09375 C-108.65139865 50.81431319 -101.81739599 47.4307109 -95 44 C-87.2484636 40.09920262 -79.46494481 36.28241864 -71.625 32.5625 C-62.26228854 28.11939759 -52.98951196 23.51265114 -43.73144531 18.85595703 C-33.68340065 13.81384641 -23.55509626 8.94796608 -13.38574219 4.15576172 C-11.07111537 3.03445151 -8.80950578 1.83646792 -6.5390625 0.62890625 C-3 -1 -3 -1 0 0 Z " fill="#FF7620" transform="translate(1251,329)"/>
<path d="M0 0 C0.474375 1.155 0.94875 2.31 1.4375 3.5 C4.6409965 9.87303367 10.1855879 15.02170478 16.6875 18 C26.47120468 20.98783795 36.03321892 19.3951664 45 15 C45.76957031 14.52175781 46.53914063 14.04351563 47.33203125 13.55078125 C50 13 50 13 53.3203125 14.97265625 C54.60161959 15.98628837 55.86898317 17.01769396 57.125 18.0625 C58.55164789 19.19264978 59.98146838 20.31880355 61.4140625 21.44140625 C62.53603027 22.32530029 62.53603027 22.32530029 63.68066406 23.22705078 C67.50702528 26.15200185 71.50135029 28.81811759 75.5 31.5 C82.13226792 35.97814675 88.57890212 40.62857928 94.94140625 45.48046875 C100.01654893 49.32466231 105.22561725 52.9353252 110.5 56.5 C116.83254364 60.78417875 123.0652867 65.16939095 129.1875 69.75 C130.22197266 70.52053711 130.22197266 70.52053711 131.27734375 71.30664062 C132.87214465 72.51097891 134.43946917 73.75157534 136 75 C136 75.33 136 75.66 136 76 C-10.52 76 -157.04 76 -308 76 C-305.65569224 73.65569224 -304.49116455 73.48078047 -301.29492188 72.79101562 C-299.80502747 72.46067322 -299.80502747 72.46067322 -298.28503418 72.12365723 C-297.1906604 71.88691284 -296.09628662 71.65016846 -294.96875 71.40625 C-284.50630667 69.06794833 -274.1041186 66.56241675 -263.71875 63.90625 C-262.30167675 63.5446765 -260.88460318 63.18310424 -259.4675293 62.8215332 C-255.14428434 61.71721888 -250.82205286 60.60896935 -246.5 59.5 C-240.76135699 58.02755637 -235.02213789 56.55741963 -229.28125 55.09375 C-228.57824265 54.9144696 -227.87523529 54.73518921 -227.15092468 54.55047607 C-218.16728546 52.263588 -209.1668032 50.07817519 -200.125 48.03125 C-189.9904407 45.73603998 -179.91266111 43.25235537 -169.84375 40.6875 C-169.09806259 40.49759995 -168.35237518 40.30769989 -167.58409119 40.11204529 C-162.2217052 38.7453536 -156.86070912 37.37325195 -151.5 36 C-145.38634109 34.43386503 -139.27211901 32.86998473 -133.15625 31.3125 C-132.40936668 31.12225061 -131.66248337 30.93200123 -130.89296722 30.73598671 C-121.63499243 28.38169508 -112.36465873 26.11967774 -103.046875 24.01171875 C-92.79662952 21.69269338 -82.60550002 19.17493612 -72.421875 16.58203125 C-71.6610965 16.38835842 -70.90031799 16.19468559 -70.1164856 15.99514389 C-64.65996574 14.60493012 -59.20487386 13.20915581 -53.75 11.8125 C-48.24097529 10.40230554 -42.73143567 8.99417285 -37.22080231 7.59027672 C-35.06140233 7.03918894 -32.90284304 6.48489941 -30.74432373 5.93037415 C-6.60304755 -0.24477887 -6.60304755 -0.24477887 0 0 Z " fill="#FF751F" transform="translate(1051,517)"/>
<path d="M0 0 C0.97169128 -0.00591408 0.97169128 -0.00591408 1.9630127 -0.01194763 C4.09259778 -0.01863091 6.22001158 0.01043963 8.34936523 0.04077148 C9.83478887 0.04502467 11.32021916 0.04735051 12.8056488 0.0478363 C15.91354656 0.05399247 19.02072095 0.0766473 22.12841797 0.11230469 C26.10870137 0.15761618 30.0883311 0.17233332 34.06884861 0.1760416 C37.13411381 0.1804735 40.19924235 0.19578247 43.26444817 0.21491814 C44.73203345 0.22378597 46.19963323 0.23052293 47.66723824 0.23507881 C49.71851134 0.24413872 51.76919876 0.26654248 53.8203125 0.29296875 C54.98659683 0.30360855 56.15288116 0.31424835 57.35450745 0.32521057 C60.28807127 0.594105 61.92931392 0.95544535 64.34545898 2.59936523 C66.84021108 6.34149338 66.60150511 8.28478396 66.61288452 12.75997925 C66.61741563 13.49405412 66.62194675 14.22812899 66.62661517 14.98444855 C66.6393035 17.45104026 66.63763596 19.91741242 66.63598633 22.3840332 C66.64196882 24.14974248 66.64877372 25.91544914 66.65634155 27.68115234 C66.67403731 32.48282411 66.67869844 37.28442463 66.67997313 42.08612585 C66.68187037 46.09216191 66.6892259 50.09818131 66.69631732 54.10421097 C66.71261251 63.55458997 66.71748524 73.00493084 66.71606445 82.45532227 C66.71486276 92.20914507 66.73596756 101.96274669 66.76755178 111.71651351 C66.79368939 120.08602023 66.8044328 128.4554546 66.80315363 136.82500184 C66.80264325 141.82579512 66.80836834 146.82639192 66.82950974 151.82714462 C66.84884977 156.53036924 66.8490457 161.23320909 66.83447647 165.93644714 C66.83238199 167.66301662 66.83712723 169.3896099 66.84919739 171.11613846 C66.86460619 173.47280802 66.85537195 175.82814365 66.8399353 178.18478394 C66.84102484 179.50366041 66.84211437 180.82253689 66.84323692 182.18137932 C66.26303949 186.16529765 65.22906515 187.83266971 62.34545898 190.59936523 C59.23388672 191.22755432 59.23388672 191.22755432 55.52905273 191.23046875 C54.51368942 191.24120171 54.51368942 191.24120171 53.47781372 191.25215149 C51.24550394 191.26902821 49.01520567 191.24964575 46.78295898 191.22827148 C45.22883946 191.2291003 43.67472002 191.23156015 42.12060547 191.23558044 C38.86553521 191.2384377 35.61115332 191.22374554 32.35620117 191.19628906 C28.18618877 191.16220537 24.01740714 191.16822459 19.84733582 191.18695164 C16.63877119 191.19752614 13.4304924 191.18857993 10.22195435 191.17356682 C8.68458912 191.16838778 7.14719401 191.16886347 5.60983276 191.17511177 C3.45985865 191.18056985 1.3116393 191.16017442 -0.83813477 191.1328125 C-2.06072998 191.12661392 -3.2833252 191.12041534 -4.54296875 191.11402893 C-8.38233354 190.4789861 -9.32238788 189.67717982 -11.65454102 186.59936523 C-12.049926 184.01769038 -12.20004992 181.86020847 -12.16920471 179.28053284 C-12.17615024 178.54151999 -12.18309577 177.80250714 -12.19025177 177.04109997 C-12.20855549 174.56355176 -12.19824863 172.08695748 -12.18798828 169.609375 C-12.1950451 167.83366172 -12.20378911 166.05795447 -12.21409607 164.28225708 C-12.23662695 159.45783363 -12.23364166 154.63373767 -12.2247746 149.80928159 C-12.21966983 145.78329768 -12.22695314 141.75737559 -12.23424667 137.73139805 C-12.25125755 128.23445145 -12.247668 118.73766548 -12.23095703 109.24072266 C-12.21403405 99.43965963 -12.22987001 89.63904192 -12.26217991 79.83802754 C-12.28886138 71.42601522 -12.29615573 63.01414164 -12.28766483 54.60209125 C-12.28273144 49.57669916 -12.28497346 44.55157506 -12.30545235 39.52621651 C-12.32378679 34.80071614 -12.31787827 30.07585713 -12.29325294 25.35039139 C-12.28823792 23.61576725 -12.29175274 21.88109444 -12.3044014 20.14650917 C-12.32030229 17.77865983 -12.30541218 15.41293014 -12.2827301 13.04518127 C-12.30048369 12.01472784 -12.30048369 12.01472784 -12.31859595 10.96345717 C-12.24512217 7.18991976 -11.70069117 5.65698313 -9.31015015 2.67242241 C-5.97651316 0.07007405 -4.19693243 -0.01823454 0 0 Z " fill="#FFFDFC" transform="translate(1265.654541015625,701.400634765625)"/>
<path d="M0 0 C0.79664063 0.41572266 0.79664063 0.41572266 1.609375 0.83984375 C2.31578125 1.20207031 3.0221875 1.56429688 3.75 1.9375 C4.44609375 2.29714844 5.1421875 2.65679687 5.859375 3.02734375 C8.24545543 4.18922956 8.24545543 4.18922956 12 5 C12 12.59 12 20.18 12 28 C9.03773438 28.03867187 9.03773438 28.03867187 6.015625 28.078125 C3.42706099 28.13439813 0.83852018 28.19174563 -1.75 28.25 C-3.05195312 28.26417969 -4.35390625 28.27835937 -5.6953125 28.29296875 C-6.94570312 28.32519531 -8.19609375 28.35742188 -9.484375 28.390625 C-10.63647461 28.41157227 -11.78857422 28.43251953 -12.97558594 28.45410156 C-16.65340599 29.11793799 -17.79119737 30.02362648 -20 33 C-20.99495236 35.37776226 -20.99495236 35.37776226 -21.52734375 38.0078125 C-21.76259766 38.99652344 -21.99785156 39.98523438 -22.24023438 41.00390625 C-22.47033203 42.03386719 -22.70042969 43.06382812 -22.9375 44.125 C-23.40193844 46.12830426 -23.86948185 48.13089075 -24.33984375 50.1328125 C-24.72245361 51.76234863 -24.72245361 51.76234863 -25.11279297 53.42480469 C-26.099251 57.39995367 -27.19888018 61.33364104 -28.31640625 65.2734375 C-31.51684773 76.6063205 -34.24024356 88.05348168 -37 99.5 C-42.6442706 122.91048864 -42.6442706 122.91048864 -45.5 132.96875 C-45.9016468 134.4282557 -46.30251111 135.88797693 -46.70263672 137.34790039 C-47.3656247 139.76371116 -48.05083263 142.16579181 -48.78521729 144.56100464 C-54.80581844 164.2830748 -54.90970242 183.53002517 -54.87554932 203.94732666 C-54.87462103 208.36670007 -54.90770901 212.78582397 -54.9375 217.20507812 C-54.99066813 225.80348447 -55.00762974 234.40143303 -55 243 C-56.74292143 241.8985873 -58.48482982 240.79557144 -60.22631836 239.69189453 C-61.1964537 239.07782745 -62.16658905 238.46376038 -63.16612244 237.83108521 C-67.06569595 235.31140988 -70.81998682 232.62031758 -74.5625 229.875 C-76.12496167 228.73822857 -77.68746282 227.60151139 -79.25 226.46484375 C-80.42949219 225.60415283 -80.42949219 225.60415283 -81.6328125 224.72607422 C-85.43551734 221.95326861 -89.24817685 219.19429263 -93.0625 216.4375 C-93.80701416 215.89915527 -94.55152832 215.36081055 -95.31860352 214.80615234 C-101.04921644 210.66955481 -106.81814187 206.58946221 -112.59912109 202.52368164 C-118.58258492 198.30947692 -124.52425384 194.03907089 -130.44311523 189.73461914 C-134.00506285 187.14685265 -137.57924995 184.58685762 -141.2109375 182.09765625 C-141.86296143 181.64664551 -142.51498535 181.19563477 -143.18676758 180.73095703 C-144.40161411 179.89322998 -145.62249977 179.06416682 -146.8503418 178.24560547 C-150.74039809 175.54920227 -150.74039809 175.54920227 -151.87890625 173.140625 C-152.0460605 170.18576914 -151.97262249 167.27046134 -151.875 164.3125 C-151.81905905 158.94216841 -152.296715 154.7260095 -154.34375 149.76953125 C-155 148 -155 148 -155 145 C-153.53125 143.45703125 -153.53125 143.45703125 -151.5 141.8125 C-148.52123341 139.321454 -145.71623062 136.77551343 -143 134 C-140.44009866 131.40017817 -137.8322046 128.93731602 -135.0625 126.5625 C-132.07198284 123.99334729 -129.26883316 121.30682744 -126.5 118.5 C-123.11758601 115.0711721 -119.61929558 111.87951482 -115.96484375 108.74609375 C-113.89179676 106.90384325 -111.94564198 104.97598338 -110 103 C-107.44009866 100.40017817 -104.8322046 97.93731602 -102.0625 95.5625 C-99.07198284 92.99334729 -96.26883316 90.30682744 -93.5 87.5 C-90.11758601 84.0711721 -86.61929558 80.87951482 -82.96484375 77.74609375 C-80.89179676 75.90384325 -78.94564198 73.97598338 -77 72 C-74.44009866 69.40017817 -71.8322046 66.93731602 -69.0625 64.5625 C-66.07198284 61.99334729 -63.26883316 59.30682744 -60.5 56.5 C-57.11758601 53.0711721 -53.61929558 49.87951482 -49.96484375 46.74609375 C-47.89179676 44.90384325 -45.94564198 42.97598338 -44 41 C-41.44009866 38.40017817 -38.8322046 35.93731602 -36.0625 33.5625 C-33.07198284 30.99334729 -30.26883316 28.30682744 -27.5 25.5 C-24.11887534 22.07247912 -20.62233453 18.88164388 -16.96875 15.75 C-14.17495455 13.26662626 -11.5861662 10.5964421 -8.96484375 7.93359375 C-6.10767624 5.12186826 -3.07875348 2.5656279 0 0 Z " fill="#FF7520" transform="translate(1261,343)"/>
<path d="M0 0 C17.82 0 35.64 0 54 0 C59.72744015 20.61878453 59.72744015 20.61878453 61.5 28.09375 C61.70302734 28.93562866 61.90605469 29.77750732 62.11523438 30.64489746 C62.95642759 34.1334228 63.79044881 37.62365039 64.625 41.11376953 C66.96624682 50.88664592 69.40252713 60.60923843 72.13639832 70.28005981 C74.34249931 78.12530752 76.30200218 86.02690725 78.22241211 93.94628906 C78.82438386 96.42391215 79.43450772 98.89944492 80.04492188 101.375 C80.43277833 102.96602727 80.82016677 104.55716873 81.20703125 106.1484375 C81.38820999 106.88065521 81.56938873 107.61287292 81.75605774 108.36727905 C82.56076805 111.71451234 83 114.53094156 83 118 C45.71 118 8.42 118 -30 118 C-25.42008107 97.39036483 -25.42008107 97.39036483 -23.5546875 90.49609375 C-23.11792581 88.85215222 -22.68124287 87.20818976 -22.24462891 85.56420898 C-21.90978485 84.31134598 -21.90978485 84.31134598 -21.56817627 83.03317261 C-16.94640613 65.7264605 -12.57869247 48.36888353 -8.43701172 30.94116211 C-8.24326965 30.13304077 -8.04952759 29.32491943 -7.84991455 28.49230957 C-7.4995772 27.03064524 -7.15247165 25.56819805 -6.8102417 24.10461426 C-4.85337034 15.96083293 -2.37321969 8.06894695 0 0 Z " fill="#FF751F" transform="translate(1254,387)"/>
<path d="M0 0 C1.65030967 3.30061935 1.17461128 6.97919839 1.19287109 10.60888672 C1.20513733 11.94567978 1.20513733 11.94567978 1.21765137 13.30947876 C1.24251678 16.26620811 1.25902275 19.22288948 1.2734375 22.1796875 C1.27876118 23.18785648 1.28408485 24.19602547 1.28956985 25.23474503 C1.31630418 30.56908661 1.33567971 35.90340475 1.35009766 41.23779297 C1.36676224 46.7551914 1.41155449 52.27199444 1.4624691 57.7891674 C1.49607422 62.02532664 1.5076676 66.26134326 1.51332474 70.49762344 C1.52005398 72.53185715 1.5353192 74.56608092 1.55921555 76.60018539 C1.59073074 79.44473024 1.59092469 82.28765164 1.58349609 85.13232422 C1.59990143 85.97506897 1.61630676 86.81781372 1.63320923 87.68609619 C1.59147998 91.58242569 1.47525464 93.40075501 -1.00007629 96.5218811 C-4.89548626 98.44122294 -8.33235409 98.5606674 -12.58227539 98.51757812 C-13.43489456 98.5245874 -14.28751373 98.53159668 -15.16596985 98.53881836 C-17.97686582 98.55638606 -20.78675052 98.54478115 -23.59765625 98.53125 C-25.55391126 98.53394502 -27.51016497 98.53782752 -29.46641541 98.54284668 C-33.56278255 98.54873985 -37.65880044 98.5401836 -41.75512695 98.52148438 C-47.00677014 98.49867991 -52.25759632 98.51182859 -57.50920963 98.53577423 C-61.54725814 98.55022418 -65.58511271 98.54563016 -69.62316704 98.53526306 C-71.5596673 98.53259434 -73.49618515 98.53587064 -75.43266487 98.54518127 C-78.13795798 98.5553353 -80.84192488 98.53986299 -83.54711914 98.51757812 C-84.3477478 98.52567505 -85.14837646 98.53377197 -85.9732666 98.54211426 C-89.50114315 98.48824804 -91.60209543 98.28719806 -94.49949646 96.19592285 C-96.71466448 92.95411906 -96.51118547 89.84300876 -96.375 86.0625 C-96.35848389 85.30469238 -96.34196777 84.54688477 -96.32495117 83.76611328 C-95.62203657 60.8428844 -87.33692485 40.06502906 -72 23 C-71.41089844 22.31808594 -70.82179688 21.63617187 -70.21484375 20.93359375 C-56.74020367 6.31461056 -18.93070731 -14.00260576 0 0 Z " fill="#FFFCFB" transform="translate(1247,705)"/>
<path d="M0 0 C139.92 0 279.84 0 424 0 C424 6.27 424 12.54 424 19 C284.08 19 144.16 19 0 19 C0 12.73 0 6.46 0 0 Z " fill="#FF7622" transform="translate(1222,657)"/>
<path d="M0 0 C0.85101288 -0.0071553 1.70202576 -0.01431061 2.5788269 -0.02168274 C5.38513261 -0.03855831 8.18983821 -0.01917435 10.99609375 0.00219727 C12.94995252 0.00136846 14.90381121 -0.00109136 16.85766602 -0.00511169 C20.94992086 -0.00796891 25.04162816 0.00672419 29.13378906 0.03417969 C34.3763941 0.06826222 39.6180201 0.06224347 44.860672 0.04351711 C48.89449202 0.03294295 52.92808466 0.04188876 56.96188354 0.05690193 C58.89475835 0.06208114 60.82765692 0.06160511 62.76052856 0.05535698 C65.46326666 0.04989977 68.16460855 0.07029561 70.8671875 0.09765625 C71.66422089 0.09113037 72.46125427 0.08460449 73.28244019 0.07788086 C76.83070296 0.13888632 79.27255056 0.54655508 82.42955017 2.20399475 C85.07465186 5.4074927 85.13217241 8.01638598 85.06469727 11.99829102 C85.07185257 12.73372131 85.07900787 13.46915161 85.08638 14.22686768 C85.10326656 16.6539147 85.08386713 19.07911429 85.0625 21.50610352 C85.06332871 23.19474439 85.06578819 24.88338519 85.06980896 26.57202148 C85.0726669 30.10954088 85.05796677 33.64642712 85.03051758 37.18383789 C84.99643424 41.71702396 85.00245271 46.24907785 85.02118015 50.78231812 C85.03175164 54.26881334 85.02281109 57.75504536 85.00779533 61.24151611 C85.00261411 62.91285419 85.00309462 64.58421976 85.00934029 66.2555542 C85.01479453 68.59227541 84.99441356 70.92737916 84.96704102 73.26391602 C84.97356689 73.95390686 84.98009277 74.64389771 84.98681641 75.35479736 C84.92301103 78.55996323 84.59467691 80.39899229 82.75126648 83.05523682 C79.90103852 84.99320643 78.24978581 85.15934771 74.81738281 85.2121582 C73.68810364 85.23767761 72.55882446 85.26319702 71.39532471 85.28948975 C69.56575226 85.29616669 69.56575226 85.29616669 67.69921875 85.30297852 C66.43325867 85.31629211 65.16729858 85.32960571 63.86297607 85.34332275 C61.17582231 85.36359521 58.49028499 85.37468617 55.80322266 85.37231445 C53.07719408 85.37199166 50.35388674 85.39935724 47.62841797 85.4543457 C29.64366934 85.81233438 15.32176306 85.4947643 1.30859375 73.25610352 C-10.725686 59.34146755 -13.78312363 43.26972952 -13.91650391 25.49951172 C-13.9331253 23.87697061 -13.96049626 22.25450453 -13.99853516 20.63232422 C-14.05335953 18.27606813 -14.07517348 15.92150538 -14.08984375 13.56469727 C-14.11251312 12.84374374 -14.1351825 12.12279022 -14.15853882 11.37998962 C-14.14339267 7.76099597 -13.74050967 5.86522484 -11.56533813 2.94021606 C-7.71821478 -0.02198553 -4.66332994 -0.06840941 0 0 Z " fill="#FFFCFA" transform="translate(1163.56640625,809.368896484375)"/>
<path d="M0 0 C15.18 0 30.36 0 46 0 C46 52.14 46 104.28 46 158 C30.82 158 15.64 158 0 158 C0 105.86 0 53.72 0 0 Z " fill="#FF751F" transform="translate(1270,718)"/>
<path d="M0 0 C8.25 0 16.5 0 25 0 C25.99 2.90941406 26.98 5.81882812 28 8.81640625 C28.98506772 11.70971112 29.97040174 14.60292516 30.95578003 17.49612427 C31.64976927 19.53403949 32.34355716 21.57202329 33.03713989 23.6100769 C39.37448339 42.23515484 39.37448339 42.23515484 45.91601562 60.78930664 C48 66.67679878 48 66.67679878 48 70 C48.66 70 49.32 70 50 70 C50.2364624 68.79786865 50.4729248 67.5957373 50.71655273 66.35717773 C52.16876517 59.84209715 54.37438322 53.59308824 56.53515625 47.28515625 C56.97867899 45.98014241 57.42182323 44.67499987 57.86460876 43.36973572 C58.78716248 40.65330065 59.71275518 37.93792893 60.64086914 35.22338867 C61.83101725 31.74233601 63.01571837 28.25946124 64.19846439 24.77588749 C65.32964287 21.44500142 66.46357192 18.11505382 67.59765625 14.78515625 C67.81341875 14.15082232 68.02918125 13.51648838 68.25148201 12.86293221 C68.86021864 11.07484865 69.47119233 9.28752715 70.08227539 7.50024414 C70.42932022 6.48370255 70.77636505 5.46716095 71.13392639 4.41981506 C72 2 72 2 73 0 C81.25 0 89.5 0 98 0 C98 31.35 98 62.7 98 95 C92.06 95 86.12 95 80 95 C80 74.21 80 53.42 80 32 C79.34 32 78.68 32 78 32 C77.83210968 32.57898544 77.66421936 33.15797089 77.49124146 33.75450134 C75.45261209 40.67746955 73.16700906 47.49794342 70.8046875 54.31640625 C70.41177521 55.45407944 70.01886292 56.59175262 69.61404419 57.76390076 C68.78979717 60.14838013 67.96449505 62.53249502 67.13818359 64.91625977 C65.8683888 68.58158353 64.60395325 72.24872777 63.33984375 75.91601562 C62.53678049 78.23709065 61.73340633 80.55805814 60.9296875 82.87890625 C60.55053192 83.97981094 60.17137634 85.08071564 59.7807312 86.21498108 C59.43011627 87.22370773 59.07950134 88.23243439 58.71826172 89.27172852 C58.40976288 90.16312027 58.10126404 91.05451202 57.78341675 91.97291565 C57 94 57 94 56 95 C53.30345146 95.07319621 50.63308542 95.09242537 47.9375 95.0625 C47.17888672 95.05798828 46.42027344 95.05347656 45.63867188 95.04882812 C43.75908129 95.0370068 41.87953101 95.01907078 40 95 C37.25832685 87.08237455 34.51995382 79.16361895 31.78582001 71.24338722 C30.51623285 67.56598868 29.24550023 63.88899424 27.97216797 60.21289062 C26.74403309 56.66713652 25.51888353 53.1203641 24.29582214 49.5728569 C23.8280061 48.21766617 23.35910428 46.86284976 22.88911438 45.50841141 C22.23247243 43.61548008 21.58000055 41.72110374 20.92773438 39.82666016 C20.55467163 38.74744293 20.18160889 37.66822571 19.79724121 36.55630493 C19 34 19 34 19 32 C18.34 32 17.68 32 17 32 C17 52.79 17 73.58 17 95 C11.39 95 5.78 95 0 95 C0 63.65 0 32.3 0 0 Z " fill="#FFFDFC" transform="translate(998,1836)"/>
<path d="M0 0 C35.31 0 70.62 0 107 0 C107 35.31 107 70.62 107 107 C102.9398523 103.5198734 99.10788427 100.23293577 95.36183167 96.48881531 C94.08527458 95.21648796 94.08527458 95.21648796 92.78292847 93.91845703 C91.87302155 93.00652588 90.96311462 92.09459473 90.02563477 91.1550293 C89.03959923 90.1703512 88.05335162 89.18588544 87.06690979 88.20161438 C84.40805288 85.54728744 81.75233368 82.88984237 79.09733319 80.2316587 C76.31483942 77.44662259 73.52989475 74.664039 70.74534607 71.88105774 C66.0775367 67.21506279 61.41182942 62.54697369 56.74731445 57.87768555 C51.34873373 52.47364445 45.94653415 47.07324102 40.54247814 41.67467564 C35.899348 37.0360746 31.25815817 32.39553893 26.61860317 27.753362 C23.84864916 24.98184655 21.07801803 22.21101709 18.30563545 19.44193077 C15.70552876 16.84470048 13.10785703 14.24505972 10.51209068 11.64349174 C9.09918775 10.22862479 7.6838063 8.81623429 6.26837158 7.40390015 C5.4370723 6.56978104 4.60577301 5.73566193 3.74928284 4.87626648 C3.02094018 4.1475468 2.29259752 3.41882711 1.54218388 2.66802502 C0 1 0 1 0 0 Z " fill="#FF7621" transform="translate(1233,522)"/>
<path d="M0 0 C3.62228765 1.81114382 5.39034879 3.14264879 8.17456055 5.93405151 C8.99886566 6.7556073 9.82317078 7.57716309 10.67245483 8.4236145 C11.56816193 9.32651215 12.46386902 10.22940979 13.38671875 11.15966797 C14.34589394 12.11940751 15.30551016 13.07870646 16.26553345 14.03759766 C18.869153 16.64064332 21.46655803 19.24981137 24.06290054 21.86011267 C26.78273374 24.59246081 29.50824349 27.31913456 32.2331543 30.04641724 C37.39592167 35.21540233 42.5535717 40.38946246 47.70940304 45.56536496 C53.56322672 51.44148803 59.42267787 57.31198555 65.28263664 63.18198943 C75.30200082 73.21872432 85.31706541 83.25973241 95.32754517 93.30532837 C96.15185028 94.1325238 96.9761554 94.95971924 97.82543945 95.8119812 C98.53924271 96.52838209 99.25304596 97.24478298 99.98847961 97.98289299 C101.39105104 99.3893598 102.81731107 100.77242807 104.26091003 102.13675117 C106 104 106 104 106 106 C71.02 106 36.04 106 0 106 C0 71.02 0 36.04 0 0 Z " fill="#FF7621" transform="translate(1222,535)"/>
<path d="M0 0 C34.65 0 69.3 0 105 0 C105 17.16 105 34.32 105 52 C70.35 52 35.7 52 0 52 C0 34.84 0 17.68 0 0 Z " fill="#FF7723" transform="translate(1541,589)"/>
<path d="M0 0 C38.94 0 77.88 0 118 0 C118 13.2 118 26.4 118 40 C79.06 40 40.12 40 0 40 C0 26.8 0 13.6 0 0 Z " fill="#FF7520" transform="translate(1222,919)"/>
<path d="M0 0 C20.13 0 40.26 0 61 0 C61 21.78 61 43.56 61 66 C40.87 66 20.74 66 0 66 C0 44.22 0 22.44 0 0 Z " fill="#FF7520" transform="translate(1403,975)"/>
<path d="M0 0 C20.13 0 40.26 0 61 0 C61 21.78 61 43.56 61 66 C40.87 66 20.74 66 0 66 C0 44.22 0 22.44 0 0 Z " fill="#FF751F" transform="translate(1098,975)"/>
<path d="M0 0 C1.51110352 -0.02320313 1.51110352 -0.02320313 3.05273438 -0.046875 C12.60371655 0.00226189 21.52936752 2.47349401 29.0625 8.5 C30.0525 9.82 31.0425 11.14 32.0625 12.5 C29.0925 16.46 26.1225 20.42 23.0625 24.5 C19.83726806 23.20990722 17.36061257 22.18307101 14.5 20.4375 C9.41091423 17.5691062 5.53936173 17.29846345 -0.3125 17.1875 C-1.59898438 17.15011719 -2.88546875 17.11273437 -4.2109375 17.07421875 C-8.51182544 17.56561999 -10.60925975 18.7901488 -13.9375 21.5 C-15.36412219 24.35324437 -15.24783868 26.33454549 -14.9375 29.5 C-13.43289925 32.44081056 -12.07075482 34.00907585 -9.0078125 35.3359375 C-5.72537978 36.36376997 -2.40085218 37.1513477 0.94384766 37.94824219 C24.49225405 43.57975533 24.49225405 43.57975533 32.0625 52.5 C36.60108594 59.99186299 37.39555383 67.95060174 35.3671875 76.39453125 C32.60233764 84.8865701 28.91749362 90.24417977 20.9375 94.375 C9.77093844 99.62780622 -5.52019102 99.23234437 -17.25 95.875 C-25.4604229 92.82694758 -31.73945353 88.54251457 -36.9375 81.5 C-35.56565653 77.43501119 -33.71681541 74.82603439 -30.8125 71.6875 C-30.08804687 70.89730469 -29.36359375 70.10710937 -28.6171875 69.29296875 C-28.06289062 68.70128906 -27.50859375 68.10960937 -26.9375 67.5 C-23.14480433 69.24431995 -20.89170004 71.54579996 -17.9375 74.5 C-10.84410445 79.89714879 -3.68741935 81.38727731 5.0625 80.5 C10.39679953 79.29044928 10.39679953 79.29044928 14.26953125 75.67578125 C15.14313927 73.27873855 15.29734474 71.48120359 15.25 68.9375 C15.24033203 67.79087891 15.24033203 67.79087891 15.23046875 66.62109375 C15.13303505 64.31102284 15.13303505 64.31102284 14.0625 61.5 C12.30433617 60.55050959 12.30433617 60.55050959 10.1171875 59.95703125 C9.30217773 59.70904785 8.48716797 59.46106445 7.64746094 59.20556641 C4.35452494 58.30675785 1.04611792 57.51657403 -2.28295898 56.76391602 C-13.34867728 54.24232921 -24.3931082 51.52109994 -30.9375 41.5 C-35.10797851 34.74094863 -34.66810178 27.23430157 -33.9375 19.5 C-32.30586953 12.92216898 -27.56403067 8.06970224 -21.9375 4.5 C-14.62496922 0.72932903 -8.15377215 -0.12472309 0 0 Z " fill="#FFFCFB" transform="translate(1148.9375,1834.5)"/>
<path d="M0 0 C1.07314453 -0.02449219 2.14628906 -0.04898437 3.25195312 -0.07421875 C14.56071441 -0.11526689 23.24034265 3.00638336 31.8125 10.375 C31.18856349 14.13619476 29.46476285 16.56460042 27.25 19.625 C26.60933594 20.51703125 25.96867188 21.4090625 25.30859375 22.328125 C24.81488281 23.00359375 24.32117188 23.6790625 23.8125 24.375 C19.80723783 23.5394937 17.20269007 21.65818923 13.8125 19.375 C9.32802689 17.07194329 5.24031671 17.04122273 0.3125 17.0625 C-0.80705078 17.03833008 -0.80705078 17.03833008 -1.94921875 17.01367188 C-6.51486238 17.00963148 -9.47246163 17.43869083 -13.1875 20.375 C-14.79098103 23.58196206 -14.66481388 26.895451 -14.1875 30.375 C-11.40858311 34.65916354 -6.9581353 36.11549599 -2.1875 37.375 C-0.33271452 37.68817184 1.52235837 38.00003842 3.38037109 38.29345703 C13.76477533 39.96708876 24.76830578 42.8185296 31.5625 51.5 C36.51108686 59.04816096 36.52205866 66.63575221 35.8125 75.375 C34.21546621 82.61424897 30.69075188 87.89178964 24.8125 92.375 C13.78255185 99.37272339 -2.24113777 99.08792494 -14.7578125 96.69140625 C-22.63125844 93.98841413 -31.05802182 89.04332164 -36.1875 82.375 C-35.9204752 77.9690908 -34.03805395 75.43200351 -31.3125 72.0625 C-30.26449219 70.73798828 -30.26449219 70.73798828 -29.1953125 69.38671875 C-28.53273438 68.72285156 -27.87015625 68.05898437 -27.1875 67.375 C-26.1975 67.375 -25.2075 67.375 -24.1875 67.375 C-23.383125 68.40625 -22.57875 69.4375 -21.75 70.5 C-16.88089485 76.38849909 -10.27903321 79.81096943 -2.73046875 80.8515625 C2.9893673 80.99537552 8.10538223 80.96727409 12.8125 77.375 C15.22793818 74.47647418 15.77698117 72.62363178 16.3125 68.875 C16.05845016 65.3396592 16.05845016 65.3396592 14.0625 62.6875 C8.2929823 58.58226625 1.63470946 56.99201448 -5.2109375 55.44921875 C-16.0808636 52.99039293 -24.62381362 49.83443037 -31.1875 40.375 C-34.73338878 34.26139865 -35.01332153 28.35364566 -34.1875 21.375 C-31.8109511 13.27035889 -27.49117253 7.90582483 -20.3828125 3.48828125 C-13.63647084 0.06709376 -7.43328137 0.00877083 0 0 Z " fill="#FFFCFB" transform="translate(944.1875,1834.625)"/>
<path d="M0 0 C1.06347656 0.00572021 2.12695312 0.01144043 3.22265625 0.01733398 C14.39554986 0.27087535 23.46899537 2.67214562 31.72265625 10.6640625 C34.81638683 14.23667521 37.3125 17.62578058 37.3125 22.5 C35.22746465 24.08236634 33.23622272 25.41919795 31 26.75 C30.40509766 27.12640625 29.81019531 27.5028125 29.19726562 27.890625 C27.61979432 28.84944555 25.96813251 29.68352369 24.3125 30.5 C20.78243343 29.32331114 20.74200388 28.83394437 19.125 25.6875 C16.30544921 21.06841239 13.60311748 18.81233725 8.3125 17.5 C0.95507867 16.75309725 -7.26057772 16.290291 -13.6875 20.5 C-18.91674959 24.91554484 -20.94418546 30.02841509 -22.6875 36.5 C-23.0175 37.49 -23.3475 38.48 -23.6875 39.5 C-24.24246281 50.87028457 -24.75551002 63.87679102 -17.6875 73.5 C-11.13543709 79.57554924 -5.90904447 80.86608452 2.9453125 80.77734375 C9.06048401 80.27365793 14.02822683 78.27746714 18.1875 73.6875 C20.42634739 70.32922892 21.88364207 67.26015246 23.3125 63.5 C26.96814909 64.18761019 29.83117272 65.75449545 33.0625 67.5625 C34.04734375 68.11035156 35.0321875 68.65820312 36.046875 69.22265625 C36.79453125 69.64417969 37.5421875 70.06570313 38.3125 70.5 C37.26634127 78.86926981 32.95355158 86.02969664 26.30859375 91.25390625 C14.44019417 98.6629463 -0.75666671 99.41398219 -14.234375 96.81640625 C-24.45678668 93.33674352 -34.01812013 85.59992437 -39.0078125 75.9453125 C-40.01934974 73.48015878 -40.90120122 71.04573961 -41.6875 68.5 C-42.04585937 67.46617188 -42.40421875 66.43234375 -42.7734375 65.3671875 C-43.94038317 60.43010966 -43.988222 55.80414659 -43.9375 50.75 C-43.92928223 49.76789551 -43.92106445 48.78579102 -43.91259766 47.77392578 C-43.70059348 34.05748355 -41.16145194 21.4517547 -31.4453125 11.0234375 C-22.11820768 2.93994665 -12.09426138 -0.07501937 0 0 Z " fill="#FFFCFB" transform="translate(861.6875,1834.5)"/>
<path d="M0 0 C0 22.44 0 44.88 0 68 C-21.45 68 -42.9 68 -65 68 C-63.19830502 46.37966022 -55.16785941 27.14613484 -38.3125 12.75 C-26.31166767 3.67938645 -14.92016403 0 0 0 Z " fill="#FF751F" transform="translate(1232,719)"/>
<path d="M0 0 C16.83 0 33.66 0 51 0 C51 21.78 51 43.56 51 66 C34.17 66 17.34 66 0 66 C0 44.22 0 22.44 0 0 Z " fill="#FF751F" transform="translate(1289,975)"/>
<path d="M0 0 C16.83 0 33.66 0 51 0 C51 21.78 51 43.56 51 66 C34.17 66 17.34 66 0 66 C0 44.22 0 22.44 0 0 Z " fill="#FF751F" transform="translate(1222,975)"/>
<path d="M0 0 C3.68497012 1.22832337 4.49950808 2.58616317 6.875 5.625 C10.59042712 10.27982198 14.39785641 14.82401845 18.3125 19.3125 C19.43107202 20.5975845 20.54956112 21.88274118 21.66796875 23.16796875 C22.22274902 23.80524902 22.7775293 24.4425293 23.34912109 25.09912109 C27.43600203 29.80489675 31.48602109 34.54237958 35.53271484 39.28271484 C36.52402316 40.44292494 37.51656868 41.60207891 38.51025391 42.76025391 C39.98876109 44.48366425 41.46351142 46.2102246 42.9375 47.9375 C43.79214844 48.93652344 44.64679688 49.93554688 45.52734375 50.96484375 C48.16151949 54.19826326 50.57588944 57.60624521 53 61 C17.36 61 -18.28 61 -55 61 C-51.14618027 55.8615737 -48.04247818 51.81742454 -43.5625 47.5 C-39.77227023 43.83666292 -36.26310086 40.05649257 -32.81420898 36.0703125 C-29.87661447 32.71803132 -26.81168366 29.4886131 -23.75 26.25 C-19.10291967 21.31182739 -14.46332143 16.36789001 -9.875 11.375 C-9.04742188 10.47523438 -8.21984375 9.57546875 -7.3671875 8.6484375 C-4.83845991 5.81926703 -2.41293983 2.9281583 0 0 Z " fill="#FF7520" transform="translate(670,615)"/>
<path d="M0 0 C21.78 0 43.56 0 66 0 C66 17.16 66 34.32 66 52 C58.905 52.0825 51.81 52.165 44.5 52.25 C42.27572266 52.28641602 40.05144531 52.32283203 37.75976562 52.36035156 C35.9752702 52.37204592 34.19076402 52.38223597 32.40625 52.390625 C31.49713867 52.41108887 30.58802734 52.43155273 29.65136719 52.45263672 C22.20457126 52.45667074 17.09523879 50.57936566 11.375 45.8125 C-1.0466831 31.10261212 0 20.45361051 0 0 Z " fill="#FF751F" transform="translate(1166,826)"/>
<path d="M0 0 C33.66 0 67.32 0 102 0 C99.97508876 4.04982248 97.51664468 7.07492683 94.5625 10.4375 C93.47359025 11.69238903 92.3850569 12.94760476 91.296875 14.203125 C90.47026367 15.15348633 90.47026367 15.15348633 89.62695312 16.12304688 C87.16776829 18.96011365 84.73707204 21.82084075 82.3125 24.6875 C81.85746094 25.22503906 81.40242187 25.76257813 80.93359375 26.31640625 C78.10854422 29.66250238 75.32481936 33.039251 72.5625 36.4375 C69.01066096 40.7957025 65.39983689 45.09886967 61.75 49.375 C61.25443604 49.95822021 60.75887207 50.54144043 60.24829102 51.14233398 C57.29897256 54.5837843 54.24627916 57.83665497 51 61 C44.9194594 54.48757054 39.02768385 47.90901151 33.43359375 40.96875 C28.96653862 35.51937295 24.29923999 30.24126817 19.67285156 24.92724609 C16.95553956 21.79670597 14.25818862 18.64916098 11.5625 15.5 C10.85516724 14.67375122 10.85516724 14.67375122 10.13354492 13.83081055 C9.22449951 12.76862212 8.31683072 11.70525377 7.41064453 10.640625 C6.39079084 9.45450233 5.3589476 8.27865304 4.31982422 7.109375 C3.76955566 6.48546875 3.21928711 5.8615625 2.65234375 5.21875 C2.14566162 4.65091797 1.63897949 4.08308594 1.11694336 3.49804688 C0 2 0 2 0 0 Z " fill="#FF7520" transform="translate(689,610)"/>
<path d="M0 0 C3.51884046 2.65745764 6.27738085 5.35073229 9 8.8125 C12.69595174 13.42323049 16.490768 17.92185669 20.375 22.375 C24.92086852 27.59401308 29.43084696 32.83929324 33.88598633 38.13598633 C36.32911101 41.03739269 38.79174352 43.91948087 41.28125 46.78125 C41.82837646 47.41216553 42.37550293 48.04308105 42.93920898 48.69311523 C43.99517407 49.90916647 45.05441546 51.12238305 46.11743164 52.33227539 C48.57714876 55.1699642 50.30315748 57.60631495 52 61 C18.34 61 -15.32 61 -50 61 C-47.97508876 56.95017752 -45.51664468 53.92507317 -42.5625 50.5625 C-41.47359025 49.30761097 -40.3850569 48.05239524 -39.296875 46.796875 C-38.47026367 45.84651367 -38.47026367 45.84651367 -37.62695312 44.87695312 C-35.16776878 42.03988691 -32.73703292 39.17919172 -30.3125 36.3125 C-29.85818604 35.77568604 -29.40387207 35.23887207 -28.93579102 34.68579102 C-25.35186546 30.4400188 -21.83583675 26.14096493 -18.328125 21.83203125 C-14.79121887 17.52958672 -11.18458135 13.28711947 -7.578125 9.04296875 C-5.03552286 6.04192774 -2.51402628 3.02497047 0 0 Z " fill="#FF7520" transform="translate(1078,615)"/>
<path d="M0 0 C33.66 0 67.32 0 102 0 C100.46887534 3.06224932 99.44819042 4.83850679 97.27734375 7.28515625 C96.47671509 8.19599976 96.47671509 8.19599976 95.65991211 9.12524414 C95.09151611 9.76453857 94.52312012 10.40383301 93.9375 11.0625 C92.74880878 12.41562113 91.56131318 13.7697935 90.375 15.125 C89.50488281 16.11886719 89.50488281 16.11886719 88.6171875 17.1328125 C86.50686101 19.56937304 84.46557686 22.05722858 82.4375 24.5625 C79.02862714 28.77198887 75.53593419 32.89754104 72 37 C65.50543078 44.5387618 59.20948137 52.22428784 53 60 C49.40278644 58.5045292 47.36902779 56.47293692 44.8125 53.5625 C44.02488281 52.66660156 43.23726562 51.77070312 42.42578125 50.84765625 C39.30662031 47.18603254 36.27513645 43.45815478 33.25 39.71875 C31.06498431 37.07852271 28.80828609 34.5327028 26.5 32 C22.69003661 27.81560918 19.10600743 23.49125164 15.55078125 19.08984375 C11.87045962 14.58366455 8.01004323 10.22816444 4.16503906 5.86254883 C0 1.10578612 0 1.10578612 0 0 Z " fill="#FF7520" transform="translate(824,610)"/>
<path d="M0 0 C2.91696199 1.29881612 4.7864651 2.58790405 6.84765625 5.01953125 C7.36465088 5.62289307 7.88164551 6.22625488 8.41430664 6.84790039 C8.95821045 7.49621826 9.50211426 8.14453613 10.0625 8.8125 C10.92186157 9.82074829 10.92186157 9.82074829 11.79858398 10.84936523 C13.53890745 12.89415498 15.27017057 14.94633041 17 17 C17.95790076 18.13057498 18.91620466 19.26080858 19.875 20.390625 C21.66883669 22.50620873 23.45853124 24.62520741 25.24609375 26.74609375 C28.18322719 30.22514154 31.15465069 33.67431888 34.125 37.125 C38.55972343 42.27836579 42.89623721 47.49681605 47.16015625 52.79296875 C48.91276674 54.97822558 48.91276674 54.97822558 50.74609375 56.67578125 C52 58 52 58 52 60 C18.67 60 -14.66 60 -49 60 C-45.62767475 54.37945792 -45.62767475 54.37945792 -43.3984375 51.8359375 C-42.91310547 51.27712891 -42.42777344 50.71832031 -41.92773438 50.14257812 C-41.41533203 49.55927734 -40.90292969 48.97597656 -40.375 48.375 C-39.28806616 47.1232603 -38.20213693 45.87064759 -37.1171875 44.6171875 C-36.58448242 44.00198242 -36.05177734 43.38677734 -35.50292969 42.75292969 C-33.45931309 40.36937427 -31.47625854 37.93955724 -29.5 35.5 C-26.0679185 31.27207351 -22.55445542 27.12475151 -19 23 C-12.50551059 15.46116541 -6.20948501 7.77571673 0 0 Z " fill="#FF7520" transform="translate(942,616)"/>
<path d="M0 0 C33.33 0 66.66 0 101 0 C98.44671327 4.25547788 95.74140545 7.8030065 92.5 11.5 C91.42021276 12.74578168 90.34079388 13.99188271 89.26171875 15.23828125 C88.71692871 15.86557129 88.17213867 16.49286133 87.61083984 17.13916016 C85.15850509 19.9720937 82.73250965 22.82694104 80.3125 25.6875 C79.85738037 26.22511963 79.40226074 26.76273926 78.93334961 27.31665039 C76.10842068 30.66269753 73.32474686 34.03934019 70.5625 37.4375 C66.46337553 42.47972014 62.24351759 47.41079406 57.98461914 52.31811523 C55.82954903 54.81145851 53.83074377 57.25388434 52 60 C51.34 60 50.68 60 50 60 C48.58561594 58.42713316 47.24395599 56.78860004 45.9375 55.125 C42.88974135 51.31164438 39.79499659 47.60191191 36.5 44 C32.67706959 39.80136781 29.08320475 35.45981058 25.51171875 31.046875 C22.58720802 27.49925701 19.5830627 24.02830918 16.5625 20.5625 C12.39979651 15.78115642 8.25877093 10.98459345 4.1875 6.125 C3.37667969 5.15820312 2.56585937 4.19140625 1.73046875 3.1953125 C0 1 0 1 0 0 Z " fill="#FF7520" transform="translate(960,610)"/>
<path d="M0 0 C5.23759061 4.12320963 9.2704629 8.61302068 13.421875 13.81640625 C16.31008922 17.41985147 19.33923026 20.89576324 22.375 24.375 C26.91925383 29.59196416 31.42587001 34.83662711 35.8815918 40.12939453 C38.35420506 43.06383473 40.84272747 45.98314696 43.3515625 48.88671875 C43.9077124 49.53116943 44.4638623 50.17562012 45.03686523 50.83959961 C46.12026094 52.09349273 47.20564764 53.34566889 48.29321289 54.59594727 C52 58.88941124 52 58.88941124 52 60 C18.67 60 -14.66 60 -49 60 C-46.44671327 55.74452212 -43.74140545 52.1969935 -40.5 48.5 C-39.42021276 47.25421832 -38.34079388 46.00811729 -37.26171875 44.76171875 C-36.71692871 44.13442871 -36.17213867 43.50713867 -35.61083984 42.86083984 C-33.15850554 40.02790683 -30.73247074 37.1730913 -28.3125 34.3125 C-27.85810547 33.77560547 -27.40371094 33.23871094 -26.93554688 32.68554688 C-23.35411411 28.44260849 -19.83985753 24.14700899 -16.3359375 19.83984375 C-13.17280888 15.99436798 -9.95092861 12.19992545 -6.71679688 8.4140625 C-4.38251343 5.67307374 -2.11874041 2.91151414 0 0 Z " fill="#FF7520" transform="translate(807,616)"/>
<path d="M0 0 C33 0 66 0 100 0 C98.04818096 3.25303173 96.59379792 5.65858745 94.1796875 8.3828125 C93.64915771 8.98681885 93.11862793 9.5908252 92.57202148 10.21313477 C92.01200439 10.84405029 91.4519873 11.47496582 90.875 12.125 C86.99129873 16.55008848 83.1434976 20.98610297 79.4375 25.5625 C75.53414403 30.38260746 71.51105331 35.08822974 67.4609375 39.78466797 C63.50107986 44.38711176 59.64756203 49.06345647 55.83984375 53.79296875 C54.30131854 55.6385457 52.73457829 57.3410731 51 59 C47.31502988 57.77167663 46.50049192 56.41383683 44.125 53.375 C40.40957467 48.72018026 36.60218476 44.17594363 32.6875 39.6875 C31.56761359 38.40112414 30.44782246 37.11466533 29.328125 35.828125 C28.77318359 35.19068359 28.21824219 34.55324219 27.64648438 33.89648438 C24.57056305 30.35351924 21.51945918 26.78931195 18.47192383 23.22192383 C15.87861626 20.18698198 13.2746174 17.16231711 10.65234375 14.15234375 C10.10392822 13.52013916 9.5555127 12.88793457 8.99047852 12.23657227 C7.94091732 11.02712627 6.88819048 9.8204176 5.83178711 8.61694336 C3.38965947 5.79545609 1.68671112 3.37342223 0 0 Z " fill="#FF7520" transform="translate(1096,610)"/>
<path d="M0 0 C31.35 0 62.7 0 95 0 C93.12975131 3.74049738 91.64017543 5.60348271 88.73388672 8.49316406 C87.41274368 9.81408051 87.41274368 9.81408051 86.06491089 11.16168213 C85.10327649 12.11310431 84.1415328 13.06441603 83.1796875 14.015625 C82.19561893 14.99596129 81.21199258 15.97674168 80.22879028 16.95794678 C77.64557286 19.53354467 75.05640488 22.10307857 72.46594238 24.67138672 C69.8213238 27.29551067 67.1823899 29.92533771 64.54296875 32.5546875 C59.36751928 37.7087167 54.18576878 42.85635157 49 48 C45.43188055 46.48269448 43.14279567 44.39063263 40.41503906 41.65795898 C39.51440735 40.7604039 38.61377563 39.86284882 37.68585205 38.93809509 C36.71226124 37.95760846 35.73885657 36.97693697 34.765625 35.99609375 C33.76279579 34.99207206 32.75959623 33.98842016 31.75604248 32.98512268 C29.65830228 30.88582091 27.56395797 28.78320894 25.47216797 26.67797852 C22.78480182 23.97356819 20.09084461 21.27584254 17.39456558 18.58032131 C15.32515323 16.51063778 13.25835158 14.43836418 11.19243622 12.36519051 C10.19942322 11.3689867 9.20579576 10.37339501 8.21155548 9.37841606 C6.82763889 7.99234338 5.4474117 6.60258996 4.06738281 5.21264648 C3.28002747 4.42147934 2.49267212 3.63031219 1.68145752 2.81517029 C0 1 0 1 0 0 Z " fill="#FF7925" transform="translate(1233,1325)"/>
<path d="M0 0 C3.51890806 1.50515867 5.79443965 3.54120742 8.49316406 6.234375 C9.37377502 7.10868164 10.25438599 7.98298828 11.16168213 8.88378906 C12.1132522 9.83893795 13.06456036 10.79434784 14.015625 11.75 C14.99610659 12.72913398 15.97688487 13.70797093 16.95794678 14.68652344 C19.00876159 16.73439429 21.05592635 18.78582784 23.10058594 20.83984375 C25.72571808 23.47640015 28.35976695 26.10383645 30.99658585 28.72869873 C33.0212959 30.74619621 35.04123608 32.76841499 37.05974579 34.79211426 C38.02954931 35.76325438 39.00084742 36.73290428 39.97364044 37.7010498 C41.32872736 39.05107834 42.67675686 40.40817973 44.02441406 41.765625 C44.79400452 42.53680664 45.56359497 43.30798828 46.35650635 44.10253906 C48 46 48 46 48 48 C16.65 48 -14.7 48 -47 48 C-40.25 40.125 -40.25 40.125 -36.55517578 36.44165039 C-35.32457932 35.21116722 -35.32457932 35.21116722 -34.06912231 33.95582581 C-33.20326508 33.09512985 -32.33740784 32.2344339 -31.4453125 31.34765625 C-30.54376434 30.44752304 -29.64221619 29.54738983 -28.71334839 28.61997986 C-26.33801783 26.24927177 -23.96054595 23.88075485 -21.58197021 21.51330566 C-19.14655283 19.08819272 -16.71403088 16.66017915 -14.28125 14.23242188 C-9.52347231 9.48562872 -4.7628462 4.74170719 0 0 Z " fill="#FF7925" transform="translate(1280,1262)"/>
<path d="M0 0 C31.35 0 62.7 0 95 0 C93.17748989 3.64502023 92.36762436 4.79516935 89.40014648 7.2331543 C84.90936205 11.03746308 80.75189613 15.10363071 76.59765625 19.26953125 C75.45290077 20.41285164 75.45290077 20.41285164 74.28501892 21.57926941 C72.68805211 23.17556068 71.09232747 24.77309553 69.49780273 26.37182617 C67.04850264 28.82652823 64.59385096 31.27578896 62.13867188 33.72460938 C60.5830122 35.28092907 59.02766234 36.83755852 57.47265625 38.39453125 C56.7373317 39.12783157 56.00200714 39.8611319 55.24440002 40.61665344 C54.56957077 41.29463486 53.89474152 41.97261627 53.19946289 42.67114258 C52.6040419 43.26735916 52.00862091 43.86357574 51.39515686 44.4778595 C49.90208655 45.96693227 49.90208655 45.96693227 49 48 C45.43188055 46.48269448 43.14279567 44.39063263 40.41503906 41.65795898 C39.51440735 40.7604039 38.61377563 39.86284882 37.68585205 38.93809509 C36.71226124 37.95760846 35.73885657 36.97693697 34.765625 35.99609375 C33.76279579 34.99207206 32.75959623 33.98842016 31.75604248 32.98512268 C29.65830228 30.88582091 27.56395797 28.78320894 25.47216797 26.67797852 C22.78480182 23.97356819 20.09084461 21.27584254 17.39456558 18.58032131 C15.32515323 16.51063778 13.25835158 14.43836418 11.19243622 12.36519051 C10.19942322 11.3689867 9.20579576 10.37339501 8.21155548 9.37841606 C6.82763889 7.99234338 5.4474117 6.60258996 4.06738281 5.21264648 C3.28002747 4.42147934 2.49267212 3.63031219 1.68145752 2.81517029 C0 1 0 1 0 0 Z " fill="#FF7723" transform="translate(1233,1191)"/>
<path d="M0 0 C1.42045593 1.43922424 1.42045593 1.43922424 3.08081055 3.44750977 C7.07436955 8.14068069 11.34558922 12.48991334 15.70703125 16.83984375 C16.51363693 17.64740616 17.32024261 18.45496857 18.15129089 19.28700256 C19.84173886 20.97812645 21.53343195 22.66800656 23.22631836 24.35668945 C25.8258748 26.95084702 28.41999675 29.55035425 31.01367188 32.15039062 C32.66113742 33.79719611 34.30891274 35.44369176 35.95703125 37.08984375 C36.73407913 37.86891586 37.51112701 38.64798798 38.3117218 39.45066833 C39.02974472 40.16553909 39.74776764 40.88040985 40.48754883 41.61694336 C41.1192952 42.24789413 41.75104156 42.87884491 42.40193176 43.52891541 C43.95039771 45.0905072 43.95039771 45.0905072 46 46 C46 46.66 46 47.32 46 48 C14.65 48 -16.7 48 -49 48 C-42.24646637 40.12087743 -42.24646637 40.12087743 -38.58691406 36.44165039 C-37.36600067 35.21116722 -37.36600067 35.21116722 -36.12042236 33.95582581 C-35.26083923 33.09512985 -34.4012561 32.2344339 -33.515625 31.34765625 C-32.61882019 30.44752304 -31.72201538 29.54738983 -30.79803467 28.61997986 C-28.91336764 26.73027345 -27.02761953 24.84172033 -25.14013672 22.95483398 C-22.71841429 20.53321409 -20.30369818 18.1047315 -17.8905983 15.67452335 C-15.58258099 13.35276577 -13.26742749 11.0381463 -10.953125 8.72265625 C-10.08544495 7.84779068 -9.21776489 6.97292511 -8.3237915 6.07154846 C-7.52245789 5.27329147 -6.72112427 4.47503448 -5.89550781 3.65258789 C-5.18968567 2.94534073 -4.48386353 2.23809357 -3.75665283 1.50941467 C-2 0 -2 0 0 0 Z " fill="#FF7723" transform="translate(1282,1396)"/>
<path d="M0 0 C0 31.35 0 62.7 0 95 C-7.875 88.25 -7.875 88.25 -11.55834961 84.55517578 C-12.78883278 83.32457932 -12.78883278 83.32457932 -14.04417419 82.06912231 C-14.90487015 81.20326508 -15.7655661 80.33740784 -16.65234375 79.4453125 C-17.55247696 78.54376434 -18.45261017 77.64221619 -19.38002014 76.71334839 C-21.75072823 74.33801783 -24.11924515 71.96054595 -26.48669434 69.58197021 C-28.91180728 67.14655283 -31.33982085 64.71403088 -33.76757812 62.28125 C-38.51437128 57.52347231 -43.25829281 52.7628462 -48 48 C-43.12663913 42.13029878 -37.87943192 36.73395165 -32.48046875 31.34765625 C-31.13170403 29.99745644 -31.13170403 29.99745644 -29.75569153 28.61997986 C-27.86674561 26.73035658 -25.97683692 24.84176184 -24.08520508 22.95483398 C-21.65614791 20.53152267 -19.23167426 18.10368257 -16.80846691 15.67452335 C-14.49322039 13.35481276 -12.17418782 11.038895 -9.85546875 8.72265625 C-8.98262741 7.84779068 -8.10978607 6.97292511 -7.210495 6.07154846 C-6.40908585 5.27329147 -5.6076767 4.47503448 -4.78198242 3.65258789 C-3.71991829 2.59171715 -3.71991829 2.59171715 -2.63639832 1.50941467 C-1 0 -1 0 0 0 Z " fill="#FF7621" transform="translate(1340,1337)"/>
<path d="M0 0 C0 31.35 0 62.7 0 95 C-7.875 88.25 -7.875 88.25 -11.55834961 84.55517578 C-12.78883278 83.32457932 -12.78883278 83.32457932 -14.04417419 82.06912231 C-14.90487015 81.20326508 -15.7655661 80.33740784 -16.65234375 79.4453125 C-17.55247696 78.54376434 -18.45261017 77.64221619 -19.38002014 76.71334839 C-21.75072823 74.33801783 -24.11924515 71.96054595 -26.48669434 69.58197021 C-28.91180728 67.14655283 -31.33982085 64.71403088 -33.76757812 62.28125 C-38.51437128 57.52347231 -43.25829281 52.7628462 -48 48 C-43.12663913 42.13029878 -37.87943192 36.73395165 -32.48046875 31.34765625 C-31.13170403 29.99745644 -31.13170403 29.99745644 -29.75569153 28.61997986 C-27.86674561 26.73035658 -25.97683692 24.84176184 -24.08520508 22.95483398 C-21.65614791 20.53152267 -19.23167426 18.10368257 -16.80846691 15.67452335 C-14.49322039 13.35481276 -12.17418782 11.038895 -9.85546875 8.72265625 C-8.98262741 7.84779068 -8.10978607 6.97292511 -7.210495 6.07154846 C-6.40908585 5.27329147 -5.6076767 4.47503448 -4.78198242 3.65258789 C-3.71991829 2.59171715 -3.71991829 2.59171715 -2.63639832 1.50941467 C-1 0 -1 0 0 0 Z " fill="#FF7621" transform="translate(1340,1203)"/>
<path d="M0 0 C7.88634745 6.75972639 7.88634745 6.75972639 11.48242188 10.28955078 C12.28595093 11.07701691 13.08947998 11.86448303 13.9173584 12.67581177 C17.50686031 16.22044705 21.09414248 19.76721812 24.67285156 23.32275391 C26.56687798 25.20009719 28.4643347 27.07270955 30.37011719 28.93798828 C33.12340394 31.6368529 35.86019127 34.35148594 38.59375 37.0703125 C39.45190308 37.9057962 40.31005615 38.74127991 41.19421387 39.6020813 C41.97252563 40.3832431 42.7508374 41.16440491 43.55273438 41.96923828 C44.5902887 42.99466232 44.5902887 42.99466232 45.64880371 44.040802 C47 46 47 46 46.9730072 47.97109985 C45.67968734 50.6679112 43.99661625 52.37742148 41.87915039 54.49316406 C41.00476822 55.37377502 40.13038605 56.25438599 39.22950745 57.16168213 C38.26919721 58.11330615 37.30857258 59.064613 36.34765625 60.015625 C35.36687475 60.99588781 34.38661135 61.97666925 33.40684509 62.95794678 C31.35444592 65.01025632 29.29698327 67.0573056 27.2355957 69.10058594 C24.58944102 71.72400891 21.95455014 74.35840931 19.32311344 76.99658585 C17.30152651 79.02150801 15.27499673 81.04142162 13.24682426 83.05974579 C12.27303046 84.02968297 11.30059047 85.00098128 10.32951546 85.97364044 C8.97468436 87.32884094 7.6126391 88.6768178 6.25024414 90.02441406 C5.08894737 91.17879974 5.08894737 91.17879974 3.90419006 92.35650635 C2 94 2 94 0 94 C0 62.98 0 31.96 0 0 Z " fill="#FF7722" transform="translate(1222,1203)"/>
<path d="M0 0 C0 31.02 0 62.04 0 94 C-7.86134068 87.26170799 -7.86134068 87.26170799 -11.55859375 83.50390625 C-12.35716797 82.69759766 -13.15574219 81.89128906 -13.97851562 81.06054688 C-15.61396331 79.39911908 -17.24938013 77.73766089 -18.88476562 76.07617188 C-23.16259709 71.7569754 -27.49900608 67.60416698 -32.10913086 63.6418457 C-35.19194819 60.96502885 -38.13921436 58.16143618 -41.0625 55.3125 C-41.65482422 54.75755859 -42.24714844 54.20261719 -42.85742188 53.63085938 C-44.53515625 51.98828125 -44.53515625 51.98828125 -47 49 C-46.83101995 45.06811972 -44.45195885 43.08320905 -41.77148438 40.41503906 C-40.87385376 39.51440735 -39.97622314 38.61377563 -39.0513916 37.68585205 C-38.06574386 36.71220732 -37.07985764 35.73880395 -36.09375 34.765625 C-35.08808148 33.76301452 -34.08300303 32.75981185 -33.07849121 31.75604248 C-30.97465926 29.65680895 -28.86601658 27.56257825 -26.75341797 25.47216797 C-24.03941217 22.786517 -21.33422699 20.09219622 -18.63213348 17.39456558 C-16.55836369 15.32494196 -14.4817776 13.25816541 -12.40412903 11.19243622 C-11.40526883 10.19928946 -10.40688629 9.20566205 -9.40898132 8.21155548 C-8.01811384 6.82752556 -6.62341341 5.44735069 -5.22851562 4.06738281 C-4.0372406 2.88634979 -4.0372406 2.88634979 -2.82189941 1.68145752 C-1 0 -1 0 0 0 Z " fill="#FF7520" transform="translate(1340,1069)"/>
<path d="M0 0 C4.15516772 2.07758386 6.42636056 4.42927575 9.4375 7.8125 C17.14780004 16.28723065 25.2618187 24.35207034 33.375 32.4375 C34.0441745 33.10472076 34.713349 33.77194153 35.40280151 34.4593811 C39.26520796 38.30960685 43.13111843 42.15628126 47 46 C45.4939923 49.52564829 43.45257205 51.79532278 40.74975586 54.49316406 C39.87222153 55.37377502 38.99468719 56.25438599 38.09056091 57.16168213 C37.13216901 58.11317825 36.17359225 59.0644882 35.21484375 60.015625 C34.23324229 60.99603394 33.25201066 61.97681328 32.27113342 62.95794678 C30.21890976 65.00860901 28.16337735 67.05587482 26.10522461 69.10058594 C23.46134756 71.72741757 20.82415752 74.36084046 18.18916988 76.99658585 C16.16580938 79.01967516 14.13985906 81.04015354 12.1130085 83.05974579 C11.13913347 84.03043014 10.16587042 85.00172887 9.19322014 85.97364044 C7.83828035 87.32642408 6.4796599 88.67551821 5.12084961 90.02441406 C3.96074623 91.17879974 3.96074623 91.17879974 2.77720642 92.35650635 C1 94 1 94 0 94 C0 62.98 0 31.96 0 0 Z " fill="#FF7520" transform="translate(1222,1338)"/>
<path d="M0 0 C31.02 0 62.04 0 94 0 C87.25 7.875 87.25 7.875 83.64697266 11.46655273 C82.84659576 12.2668541 82.04621887 13.06715546 81.22158813 13.89170837 C80.37760468 14.73053055 79.53362122 15.56935272 78.6640625 16.43359375 C77.78471039 17.31153091 76.90535828 18.18946808 75.99935913 19.0940094 C73.21025942 21.87754412 70.41768982 24.65756769 67.625 27.4375 C65.7247458 29.33216665 63.82525347 31.2275963 61.92578125 33.12304688 C57.28649396 37.75135161 52.64435833 42.37678421 48 47 C44.47435171 45.4939923 42.20467722 43.45257205 39.50683594 40.74975586 C38.62622498 39.87222153 37.74561401 38.99468719 36.83831787 38.09056091 C35.88682175 37.13216901 34.9355118 36.17359225 33.984375 35.21484375 C33.00396606 34.23324229 32.02318672 33.25201066 31.04205322 32.27113342 C28.99139099 30.21890976 26.94412518 28.16337735 24.89941406 26.10522461 C22.27258243 23.46134756 19.63915954 20.82415752 17.00341415 18.18916988 C14.98032484 16.16580938 12.95984646 14.13985906 10.94025421 12.1130085 C9.96956986 11.13913347 8.99827113 10.16587042 8.02635956 9.19322014 C6.67357592 7.83828035 5.32448179 6.4796599 3.97558594 5.12084961 C3.20599548 4.34744736 2.43640503 3.5740451 1.64349365 2.77720642 C0 1 0 1 0 0 Z " fill="#FF751F" transform="translate(1234,1460)"/>
<path d="M0 0 C3.52564829 1.5060077 5.79532278 3.54742795 8.49316406 6.25024414 C9.37377502 7.12777847 10.25438599 8.00531281 11.16168213 8.90943909 C12.11317825 9.86783099 13.0644882 10.82640775 14.015625 11.78515625 C14.99603394 12.76675771 15.97681328 13.74798934 16.95794678 14.72886658 C19.00860901 16.78109024 21.05587482 18.83662265 23.10058594 20.89477539 C25.72741757 23.53865244 28.36084046 26.17584248 30.99658585 28.81083012 C33.01967516 30.83419062 35.04015354 32.86014094 37.05974579 34.8869915 C38.03043014 35.86086653 39.00172887 36.83412958 39.97364044 37.80677986 C41.32642408 39.16171965 42.67551821 40.5203401 44.02441406 41.87915039 C45.17879974 43.03925377 45.17879974 43.03925377 46.35650635 44.22279358 C48 46 48 46 48 47 C16.98 47 -14.04 47 -46 47 C-39.25 39.125 -39.25 39.125 -35.64697266 35.53344727 C-34.84659576 34.7331459 -34.04621887 33.93284454 -33.22158813 33.10829163 C-32.37760468 32.26946945 -31.53362122 31.43064728 -30.6640625 30.56640625 C-29.78471039 29.68846909 -28.90535828 28.81053192 -27.99935913 27.9059906 C-25.21025942 25.12245588 -22.41768982 22.34243231 -19.625 19.5625 C-17.7247458 17.66783335 -15.82525347 15.7724037 -13.92578125 13.87695312 C-9.28649396 9.24864839 -4.64435833 4.62321579 0 0 Z " fill="#FF751F" transform="translate(1280,1128)"/>
<path d="M0 0 C7.875 6.75 7.875 6.75 11.46655273 10.35302734 C12.2668541 11.15340424 13.06715546 11.95378113 13.89170837 12.77841187 C14.73053055 13.62239532 15.56935272 14.46637878 16.43359375 15.3359375 C17.31153091 16.21528961 18.18946808 17.09464172 19.0940094 18.00064087 C21.87754412 20.78974058 24.65756769 23.58231018 27.4375 26.375 C29.33216665 28.2752542 31.2275963 30.17474653 33.12304688 32.07421875 C37.75135161 36.71350604 42.37678421 41.35564167 47 46 C45.4939923 49.52564829 43.45257205 51.79532278 40.74975586 54.49316406 C39.87222153 55.37377502 38.99468719 56.25438599 38.09056091 57.16168213 C37.13216901 58.11317825 36.17359225 59.0644882 35.21484375 60.015625 C34.23324229 60.99603394 33.25201066 61.97681328 32.27113342 62.95794678 C30.21890976 65.00860901 28.16337735 67.05587482 26.10522461 69.10058594 C23.46134756 71.72741757 20.82415752 74.36084046 18.18916988 76.99658585 C16.16580938 79.01967516 14.13985906 81.04015354 12.1130085 83.05974579 C11.13913347 84.03043014 10.16587042 85.00172887 9.19322014 85.97364044 C7.83828035 87.32642408 6.4796599 88.67551821 5.12084961 90.02441406 C3.96074623 91.17879974 3.96074623 91.17879974 2.77720642 92.35650635 C1 94 1 94 0 94 C0 62.98 0 31.96 0 0 Z " fill="#FF751F" transform="translate(1222,1069)"/>
<path d="M0 0 C31.02 0 62.04 0 94 0 C87.25 7.875 87.25 7.875 83.64697266 11.46655273 C82.84659576 12.2668541 82.04621887 13.06715546 81.22158813 13.89170837 C80.37760468 14.73053055 79.53362122 15.56935272 78.6640625 16.43359375 C77.78471039 17.31153091 76.90535828 18.18946808 75.99935913 19.0940094 C73.21025942 21.87754412 70.41768982 24.65756769 67.625 27.4375 C65.7247458 29.33216665 63.82525347 31.2275963 61.92578125 33.12304688 C57.28649396 37.75135161 52.64435833 42.37678421 48 47 C44.47435171 45.4939923 42.20467722 43.45257205 39.50683594 40.74975586 C38.62622498 39.87222153 37.74561401 38.99468719 36.83831787 38.09056091 C35.88682175 37.13216901 34.9355118 36.17359225 33.984375 35.21484375 C33.00396606 34.23324229 32.02318672 33.25201066 31.04205322 32.27113342 C28.99139099 30.21890976 26.94412518 28.16337735 24.89941406 26.10522461 C22.27258243 23.46134756 19.63915954 20.82415752 17.00341415 18.18916988 C14.98032484 16.16580938 12.95984646 14.13985906 10.94025421 12.1130085 C9.96956986 11.13913347 8.99827113 10.16587042 8.02635956 9.19322014 C6.67357592 7.83828035 5.32448179 6.4796599 3.97558594 5.12084961 C3.20599548 4.34744736 2.43640503 3.5740451 1.64349365 2.77720642 C0 1 0 1 0 0 Z " fill="#FF751F" transform="translate(1234,1057)"/>
<path d="M0 0 C10.23 0 20.46 0 31 0 C31 21.78 31 43.56 31 66 C20.77 66 10.54 66 0 66 C0 44.22 0 22.44 0 0 Z " fill="#FF751F" transform="translate(1356,975)"/>
<path d="M0 0 C10.23 0 20.46 0 31 0 C31 21.78 31 43.56 31 66 C20.77 66 10.54 66 0 66 C0 44.22 0 22.44 0 0 Z " fill="#FF7520" transform="translate(1175,975)"/>
<path d="M0 0 C0 18.81 0 37.62 0 57 C-6.084375 57.185625 -12.16875 57.37125 -18.4375 57.5625 C-20.33943115 57.64443604 -22.2413623 57.72637207 -24.20092773 57.81079102 C-36.24888387 58.10751413 -36.24888387 58.10751413 -41.23095703 54.95654297 C-43.44028856 52.74721144 -45.28646449 50.60704288 -47 48 C-45.4939923 44.47435171 -43.45257205 42.20467722 -40.74975586 39.50683594 C-39.87222153 38.62622498 -38.99468719 37.74561401 -38.09056091 36.83831787 C-37.13216901 35.88682175 -36.17359225 34.9355118 -35.21484375 33.984375 C-34.23324229 33.00396606 -33.25201066 32.02318672 -32.27113342 31.04205322 C-30.21890976 28.99139099 -28.16337735 26.94412518 -26.10522461 24.89941406 C-23.46134756 22.27258243 -20.82415752 19.63915954 -18.18916988 17.00341415 C-16.16580938 14.98032484 -14.13985906 12.95984646 -12.1130085 10.94025421 C-11.13913347 9.96956986 -10.16587042 8.99827113 -9.19322014 8.02635956 C-7.83828035 6.67357592 -6.4796599 5.32448179 -5.12084961 3.97558594 C-4.34744736 3.20599548 -3.5740451 2.43640503 -2.77720642 1.64349365 C-1 0 -1 0 0 0 Z " fill="#FF751F" transform="translate(1340,1472)"/>
<path d="M0 0 C7.875 6.75 7.875 6.75 11.46655273 10.35302734 C12.2668541 11.15340424 13.06715546 11.95378113 13.89170837 12.77841187 C14.73053055 13.62239532 15.56935272 14.46637878 16.43359375 15.3359375 C17.31153091 16.21528961 18.18946808 17.09464172 19.0940094 18.00064087 C21.87754412 20.78974058 24.65756769 23.58231018 27.4375 26.375 C29.33216665 28.2752542 31.2275963 30.17474653 33.12304688 32.07421875 C37.75135161 36.71350604 42.37678421 41.35564167 47 46 C42.81342196 54.42352102 42.81342196 54.42352102 38 57 C31.64652676 58.19728726 24.97975144 57.65048393 18.5625 57.4375 C9.3740625 57.2209375 9.3740625 57.2209375 0 57 C0 38.19 0 19.38 0 0 Z " fill="#FF751F" transform="translate(1222,1472)"/>
<path d="M0 0 C9.19854856 8.54150937 9.19854856 8.54150937 9.828125 15.76953125 C9.94707763 22.06410815 9.57406269 27.28455149 5.04296875 32.12890625 C-0.62233348 37.2511294 -5.25060086 38.88351511 -12.8828125 38.6796875 C-18.4131531 38.14225628 -22.02921153 36.1086552 -25.6875 32.0625 C-30.34831027 26.08423402 -31.09140135 20.9186092 -30.375 13.4375 C-28.63549679 7.02308192 -24.77381171 3.10579049 -19.375 -0.5625 C-13.36361937 -2.71564461 -5.72950683 -2.65254946 0 0 Z " fill="#FF7520" transform="translate(606.375,927.5625)"/>
<path d="M0 0 C0.33 0 0.66 0 1 0 C1 17.16 1 34.32 1 52 C-13.19 52 -27.38 52 -42 52 C-39.95015509 47.90031018 -37.43184374 44.83948955 -34.4375 41.4375 C-33.34144897 40.17664893 -32.24640511 38.91492167 -31.15234375 37.65234375 C-30.34385986 36.72010986 -30.34385986 36.72010986 -29.51904297 35.76904297 C-27.46864567 33.38119681 -25.48066779 30.94585215 -23.5 28.5 C-19.53422426 23.61128009 -15.44070663 18.84360623 -11.32495117 14.08154297 C-7.80301644 9.9879137 -4.44057475 5.80368883 -1.20703125 1.4765625 C-0.80871094 0.98929688 -0.41039062 0.50203125 0 0 Z " fill="#FF7722" transform="translate(1205,624)"/>
<path d="M0 0 C10.89 0 21.78 0 33 0 C33 10.89 33 21.78 33 33 C22.11 33 11.22 33 0 33 C0 22.11 0 11.22 0 0 Z " fill="#FF7622" transform="translate(1173,1545)"/>
<path d="M0 0 C3.63145881 2.65716499 6.54932139 5.53689551 8.375 9.75 C9.01180352 16.96710652 8.75708895 21.79217166 4.5625 27.875 C-0.75905269 32.81644179 -4.34569916 33.22426364 -11.453125 33.15625 C-16.75557409 32.65654276 -19.31014655 30.1242295 -22.75 26.3125 C-26.24354848 21.26626331 -26.04159833 15.80537377 -25.4375 9.875 C-23.8125 6.5 -23.8125 6.5 -21.4375 3.875 C-20.6125 2.92625 -19.7875 1.9775 -18.9375 1 C-13.69242739 -3.14788905 -5.94398837 -1.94530529 0 0 Z " fill="#FF7621" transform="translate(1289.4375,300.125)"/>
<path d="M0 0 C8.91 0 17.82 0 27 0 C27 10.89 27 21.78 27 33 C18.09 33 9.18 33 0 33 C0 22.11 0 11.22 0 0 Z " fill="#FF7825" transform="translate(1395,1545)"/>
<path d="M0 0 C8.91 0 17.82 0 27 0 C27 10.89 27 21.78 27 33 C18.09 33 9.18 33 0 33 C0 22.11 0 11.22 0 0 Z " fill="#FF7824" transform="translate(1055,1545)"/>
<path d="M0 0 C10.89 0 21.78 0 33 0 C33 8.91 33 17.82 33 27 C22.11 27 11.22 27 0 27 C0 18.09 0 9.18 0 0 Z " fill="#FF7824" transform="translate(1173,1388)"/>
<path d="M0 0 C10.89 0 21.78 0 33 0 C33 8.91 33 17.82 33 27 C22.11 27 11.22 27 0 27 C0 18.09 0 9.18 0 0 Z " fill="#FF7824" transform="translate(1173,1303)"/>
<path d="M0 0 C10.89 0 21.78 0 33 0 C33 8.91 33 17.82 33 27 C22.11 27 11.22 27 0 27 C0 18.09 0 9.18 0 0 Z " fill="#FF7824" transform="translate(1173,1218)"/>
<path d="M0 0 C10.89 0 21.78 0 33 0 C33 8.91 33 17.82 33 27 C22.11 27 11.22 27 0 27 C0 18.09 0 9.18 0 0 Z " fill="#FF7926" transform="translate(1356,853)"/>
<path d="M0 0 C10.89 0 21.78 0 33 0 C33 8.91 33 17.82 33 27 C22.11 27 11.22 27 0 27 C0 18.09 0 9.18 0 0 Z " fill="#FF7824" transform="translate(1356,726)"/>
<path d="M0 0 C8.58 0 17.16 0 26 0 C26 10.89 26 21.78 26 33 C17.42 33 8.84 33 0 33 C0 22.11 0 11.22 0 0 Z " fill="#FF7620" transform="translate(1480,1545)"/>
<path d="M0 0 C8.58 0 17.16 0 26 0 C26 10.89 26 21.78 26 33 C17.42 33 8.84 33 0 33 C0 22.11 0 11.22 0 0 Z " fill="#FF7620" transform="translate(1438,1545)"/>
<path d="M0 0 C8.58 0 17.16 0 26 0 C26 10.89 26 21.78 26 33 C17.42 33 8.84 33 0 33 C0 22.11 0 11.22 0 0 Z " fill="#FF7620" transform="translate(1268,1545)"/>
<path d="M0 0 C8.58 0 17.16 0 26 0 C26 10.89 26 21.78 26 33 C17.42 33 8.84 33 0 33 C0 22.11 0 11.22 0 0 Z " fill="#FF7620" transform="translate(1098,1545)"/>
<path d="M0 0 C10.89 0 21.78 0 33 0 C33 8.58 33 17.16 33 26 C22.11 26 11.22 26 0 26 C0 17.42 0 8.84 0 0 Z " fill="#FF7520" transform="translate(1173,1473)"/>
<path d="M0 0 C10.89 0 21.78 0 33 0 C33 8.58 33 17.16 33 26 C22.11 26 11.22 26 0 26 C0 17.42 0 8.84 0 0 Z " fill="#FF7520" transform="translate(1173,1431)"/>
<path d="M0 0 C10.89 0 21.78 0 33 0 C33 8.58 33 17.16 33 26 C22.11 26 11.22 26 0 26 C0 17.42 0 8.84 0 0 Z " fill="#FF7520" transform="translate(1173,1346)"/>
<path d="M0 0 C10.89 0 21.78 0 33 0 C33 8.58 33 17.16 33 26 C22.11 26 11.22 26 0 26 C0 17.42 0 8.84 0 0 Z " fill="#FF7520" transform="translate(1173,1261)"/>
<path d="M0 0 C10.89 0 21.78 0 33 0 C33 8.58 33 17.16 33 26 C22.11 26 11.22 26 0 26 C0 17.42 0 8.84 0 0 Z " fill="#FF7520" transform="translate(1173,1176)"/>
<path d="M0 0 C10.89 0 21.78 0 33 0 C33 8.58 33 17.16 33 26 C22.11 26 11.22 26 0 26 C0 17.42 0 8.84 0 0 Z " fill="#FF7520" transform="translate(1173,1134)"/>
<path d="M0 0 C10.89 0 21.78 0 33 0 C33 8.58 33 17.16 33 26 C22.11 26 11.22 26 0 26 C0 17.42 0 8.84 0 0 Z " fill="#FF7520" transform="translate(1173,1091)"/>
<path d="M0 0 C10.89 0 21.78 0 33 0 C33 8.58 33 17.16 33 26 C22.11 26 11.22 26 0 26 C0 17.42 0 8.84 0 0 Z " fill="#FF7520" transform="translate(1356,896)"/>
<path d="M0 0 C10.89 0 21.78 0 33 0 C33 8.58 33 17.16 33 26 C22.11 26 11.22 26 0 26 C0 17.42 0 8.84 0 0 Z " fill="#FF7520" transform="translate(1356,811)"/>
<path d="M0 0 C10.89 0 21.78 0 33 0 C33 8.58 33 17.16 33 26 C22.11 26 11.22 26 0 26 C0 17.42 0 8.84 0 0 Z " fill="#FF7520" transform="translate(1356,769)"/>
<path d="M0 0 C7.59 0 15.18 0 23 0 C23 10.89 23 21.78 23 33 C15.41 33 7.82 33 0 33 C0 22.11 0 11.22 0 0 Z " fill="#FF7620" transform="translate(1356,1545)"/>
<path d="M0 0 C4.06009672 2.34550377 7.27080314 4.50211236 8.88671875 9.046875 C9.54895098 14.04295614 9.46700522 17.84166464 7.26171875 22.421875 C3.39551298 26.6950498 0.24050392 29.25172617 -5.61328125 29.546875 C-11.46706642 29.25172617 -14.62207548 26.6950498 -18.48828125 22.421875 C-20.69441177 17.83991161 -20.90294143 14.04534254 -20.11328125 9.046875 C-16.52874103 1.30426813 -8.42680396 -3.80062877 0 0 Z " fill="#FF7622" transform="translate(1085.11328125,491.953125)"/>
<path d="M0 0 C10.89 0 21.78 0 33 0 C33 6.93 33 13.86 33 21 C22.11 21 11.22 21 0 21 C0 14.07 0 7.14 0 0 Z " fill="#FF7925" transform="translate(1356,938)"/>
<path d="M0 0 C10.89 0 21.78 0 33 0 C33 5.94 33 11.88 33 18 C22.11 18 11.22 18 0 18 C0 12.06 0 6.12 0 0 Z " fill="#FF7520" transform="translate(1173,1057)"/>
<path d="M0 0 C10.89 0 21.78 0 33 0 C33 5.94 33 11.88 33 18 C22.11 18 11.22 18 0 18 C0 12.06 0 6.12 0 0 Z " fill="#FF7723" transform="translate(1356,692)"/>
<path d="M0 0 C5.61 0 11.22 0 17 0 C17 10.89 17 21.78 17 33 C11.39 33 5.78 33 0 33 C0 22.11 0 11.22 0 0 Z " fill="#FF7824" transform="translate(1140,1545)"/>
<path d="M0 0 C10.89 0 21.78 0 33 0 C33 4.29 33 8.58 33 13 C22.11 13 11.22 13 0 13 C0 8.71 0 4.42 0 0 Z " fill="#FF7520" transform="translate(1173,1516)"/>
<path d="M0 0 C3.3 0 6.6 0 10 0 C10 10.89 10 21.78 10 33 C6.7 33 3.4 33 0 33 C0 22.11 0 11.22 0 0 Z " fill="#FF7D2C" transform="translate(1522,1545)"/>
<path d="M0 0 C2.97 0 5.94 0 9 0 C9 10.89 9 21.78 9 33 C6.03 33 3.06 33 0 33 C0 22.11 0 11.22 0 0 Z " fill="#FF7620" transform="translate(1030,1545)"/>
<path d="M0 0 C6.93 0 13.86 0 21 0 C14.23829344 7.88865765 14.23829344 7.88865765 11.38671875 10.74609375 C10.77892578 11.35517578 10.17113281 11.96425781 9.54492188 12.59179688 C8.93197266 13.20087891 8.31902344 13.80996094 7.6875 14.4375 C7.05521484 15.07365234 6.42292969 15.70980469 5.77148438 16.36523438 C4.86946289 17.26532227 4.86946289 17.26532227 3.94921875 18.18359375 C3.40612061 18.72556396 2.86302246 19.26753418 2.3034668 19.82592773 C1 21 1 21 0 21 C0 14.07 0 7.14 0 0 Z " fill="#FF7925" transform="translate(1222,1545)"/>
<path d="M0 0 C4.53665737 3.7301405 8.77941122 7.67053566 12.9375 11.8125 C13.43419189 12.30468018 13.93088379 12.79686035 14.44262695 13.30395508 C18 16.87624634 18 16.87624634 18 18 C12.06 18 6.12 18 0 18 C0 12.06 0 6.12 0 0 Z " fill="#FF7723" transform="translate(1310,1560)"/>
<path d="M0 0 C0 5.94 0 11.88 0 18 C-5.94 18 -11.88 18 -18 18 C-14.2698595 13.46334263 -10.32946434 9.22058878 -6.1875 5.0625 C-5.69531982 4.56580811 -5.20313965 4.06911621 -4.69604492 3.55737305 C-1.12375366 0 -1.12375366 0 0 0 Z " fill="#FF7926" transform="translate(1252,1560)"/>
<path d="M0 0 C5.94 0 11.88 0 18 0 C18 5.94 18 11.88 18 18 C13.46334263 14.2698595 9.22058878 10.32946434 5.0625 6.1875 C4.31746216 5.44922974 4.31746216 5.44922974 3.55737305 4.69604492 C0 1.12375366 0 1.12375366 0 0 Z " fill="#FF7E2E" transform="translate(1319,1545)"/>
<path d="M0 0 C0.66 0 1.32 0 2 0 C2 20.79 2 41.58 2 63 C1.67 63 1.34 63 1 63 C0.505 34.29 0.505 34.29 0 5 C-0.99 5.495 -0.99 5.495 -2 6 C-1.34 4.02 -0.68 2.04 0 0 Z " fill="#FF924F" transform="translate(1076,1868)"/>
</svg>
